<svg width="219" height="79" viewBox="0 0 219 79" fill="none" xmlns="http://www.w3.org/2000/svg">
<g filter="url(#filter0_d_9_2513)">
<path d="M94.2977 37.5525C94.2977 47.5967 86.4804 54.9981 76.8868 54.9981C67.2932 54.9981 59.476 47.5967 59.476 37.5525C59.476 27.4375 67.2932 20.1069 76.8868 20.1069C86.4804 20.1069 94.2977 27.4375 94.2977 37.5525ZM86.676 37.5525C86.676 31.2759 82.1453 26.9813 76.8868 26.9813C71.6283 26.9813 67.0976 31.2759 67.0976 37.5525C67.0976 43.7662 71.6283 48.1237 76.8868 48.1237C82.1453 48.1237 86.676 43.7584 86.676 37.5525Z" fill="#EA4335"/>
<path d="M131.858 37.5525C131.858 47.5967 124.041 54.9981 114.447 54.9981C104.854 54.9981 97.0363 47.5967 97.0363 37.5525C97.0363 27.4454 104.854 20.1069 114.447 20.1069C124.041 20.1069 131.858 27.4375 131.858 37.5525ZM124.236 37.5525C124.236 31.2759 119.706 26.9813 114.447 26.9813C109.189 26.9813 104.658 31.2759 104.658 37.5525C104.658 43.7662 109.189 48.1237 114.447 48.1237C119.706 48.1237 124.236 43.7584 124.236 37.5525Z" fill="#FBBC05"/>
<path d="M167.854 21.1609V52.4811C167.854 65.3647 160.294 70.6267 151.358 70.6267C142.946 70.6267 137.883 64.9715 135.974 60.3466L142.61 57.5701C143.791 60.4095 146.687 63.7602 151.35 63.7602C157.071 63.7602 160.615 60.2129 160.615 53.5351V51.026H160.349C158.643 53.1418 155.357 54.9902 151.21 54.9902C142.531 54.9902 134.581 47.3922 134.581 37.6154C134.581 27.7679 142.531 20.1069 151.21 20.1069C155.349 20.1069 158.636 21.9553 160.349 24.0082H160.615V21.1688H167.854V21.1609ZM161.155 37.6154C161.155 31.4725 157.078 26.9813 151.89 26.9813C146.632 26.9813 142.226 31.4725 142.226 37.6154C142.226 43.6954 146.632 48.1237 151.89 48.1237C157.078 48.1237 161.155 43.6954 161.155 37.6154Z" fill="#4285F4"/>
<path d="M179.787 2.80249V53.9279H172.353V2.80249H179.787Z" fill="#34A853"/>
<path d="M208.756 43.2941L214.671 47.2583C212.762 50.0977 208.161 54.99 200.211 54.99C190.351 54.99 182.987 47.3291 182.987 37.5444C182.987 27.1699 190.413 20.0989 199.358 20.0989C208.364 20.0989 212.77 27.3036 214.21 31.197L215 33.1791L191.799 42.8379C193.575 46.338 196.337 48.1235 200.211 48.1235C204.092 48.1235 206.784 46.2043 208.756 43.2941ZM190.546 37.0175L206.056 30.5442C205.203 28.3655 202.636 26.8474 199.616 26.8474C195.742 26.8474 190.351 30.2846 190.546 37.0175Z" fill="#EA4335"/>
<path d="M31.3368 33.0139V25.6125H56.1502C56.3928 26.9024 56.518 28.4283 56.518 30.0801C56.518 35.6331 55.0077 42.4996 50.1405 47.3919C45.4063 52.3472 39.3575 54.99 31.3446 54.99C16.4925 54.99 4.00366 42.83 4.00366 27.9014C4.00366 12.9727 16.4925 0.812744 31.3446 0.812744C39.561 0.812744 45.4141 4.05331 49.8119 8.27706L44.616 13.4997C41.4625 10.5266 37.19 8.21413 31.3368 8.21413C20.4912 8.21413 12.0087 16.9998 12.0087 27.9014C12.0087 38.8029 20.4912 47.5886 31.3368 47.5886C38.3715 47.5886 42.378 44.7492 44.9446 42.1693C47.0261 40.0771 48.3955 37.0882 48.9354 33.006L31.3368 33.0139Z" fill="#4285F4"/>
</g>
<defs>
<filter id="filter0_d_9_2513" x="0.00366211" y="0.812744" width="218.996" height="77.814" filterUnits="userSpaceOnUse" color-interpolation-filters="sRGB">
<feFlood flood-opacity="0" result="BackgroundImageFix"/>
<feColorMatrix in="SourceAlpha" type="matrix" values="0 0 0 0 0 0 0 0 0 0 0 0 0 0 0 0 0 0 127 0" result="hardAlpha"/>
<feOffset dy="4"/>
<feGaussianBlur stdDeviation="2"/>
<feComposite in2="hardAlpha" operator="out"/>
<feColorMatrix type="matrix" values="0 0 0 0 0 0 0 0 0 0 0 0 0 0 0 0 0 0 0.25 0"/>
<feBlend mode="normal" in2="BackgroundImageFix" result="effect1_dropShadow_9_2513"/>
<feBlend mode="normal" in="SourceGraphic" in2="effect1_dropShadow_9_2513" result="shape"/>
</filter>
</defs>
</svg>
