<svg width="1920" height="556" viewBox="0 0 1920 556" fill="none" xmlns="http://www.w3.org/2000/svg">
<g opacity="0.3" filter="url(#filter0_d_9_103)">
<path d="M652.052 547.273C642.531 547.273 633.265 546.826 624.359 545.935C605.682 544.064 588.426 540.222 573.071 534.516C556.567 528.386 542.093 520.031 530.045 509.687C505.833 488.896 493.719 463.996 482.003 439.916C479.701 435.187 477.322 430.298 474.906 425.554C458.42 393.221 437.522 364.898 411.022 338.968C358.159 287.243 283.815 243.1 196.025 211.31C94.496 174.547 -14.6639 156.234 -111.349 159.745C-168.176 161.81 -243.26 181.444 -276.816 214.975C-296.731 234.875 -298.337 256.959 -281.457 278.836L-281.792 278.929C-290.643 267.455 -294.499 255.953 -293.25 244.742C-292.105 234.457 -286.683 224.403 -277.133 214.861C-261.944 199.682 -236.895 186.23 -204.694 175.956C-174.938 166.464 -141.797 160.628 -111.371 159.523C-60.7727 157.687 -6.95884 161.762 48.575 171.637C98.9157 180.59 148.59 193.873 196.216 211.118C284.058 242.926 358.446 287.093 411.339 338.849C437.854 364.797 458.763 393.135 475.259 425.486C477.679 430.23 480.058 435.121 482.357 439.85C494.061 463.912 506.168 488.794 530.347 509.555C553.732 529.636 585.384 541.801 624.421 545.71C678.482 551.126 744.13 539.8 800.024 515.411C880.574 480.266 936.476 429.111 990.54 379.643C1000.02 370.971 1009.81 362.005 1019.52 353.347C1044.7 330.865 1078.81 301.732 1119.35 275.779C1160.78 249.25 1202.89 229.759 1248.07 216.19C1275.73 207.885 1305.04 202.289 1335.19 199.559C1363.04 197.036 1392.51 196.88 1422.8 199.09C1474.75 202.883 1530.72 213.597 1593.9 231.842C1718.32 267.77 1842.6 311.379 1963.3 361.459C2078.01 409.059 2190.53 462.922 2297.7 521.546L2297.45 521.709C2075.28 400.183 1838.52 302.725 1593.74 232.04C1455.45 192.105 1345.66 187.13 1248.24 216.386C1149.12 246.148 1079.88 299.859 1019.82 353.469C1010.12 362.124 1000.33 371.09 990.85 379.761C936.771 429.248 880.85 480.418 800.245 515.587C774.198 526.953 744.896 535.817 715.508 541.222C699.984 544.077 684.552 545.944 669.635 546.771C663.691 547.108 657.823 547.273 652.052 547.273Z" fill="#FFE492"/>
<path d="M661.361 534.943C637.082 534.943 614.593 532.181 594.494 526.728C572.082 520.648 552.742 511.226 537.008 498.727C535.616 497.619 534.235 496.475 532.901 495.321C508.946 474.62 496.295 450.044 484.063 426.276C481.588 421.473 479.032 416.504 476.439 411.683C460.996 382.978 442.4 357.677 419.583 334.341C416.773 331.468 413.863 328.589 410.928 325.784C357.287 274.504 282.34 230.919 194.188 199.742C91.9267 163.606 -17.5426 146.051 -114.055 150.31C-170.469 152.826 -245.206 172.782 -278.907 206.055C-299.087 225.98 -301.37 248.107 -285.518 270.048L-285.857 270.136C-294.166 258.637 -297.58 247.112 -296 235.888C-294.549 225.579 -288.907 215.503 -279.224 205.941C-263.88 190.789 -238.905 177.321 -207.005 166.994C-177.522 157.449 -144.525 151.446 -114.088 150.09C-63.552 147.86 -9.6792 151.545 46.0315 161.042C96.4937 169.645 146.403 182.602 194.372 199.552C282.575 230.748 357.563 274.359 411.237 325.668C414.173 328.474 417.086 331.356 419.896 334.231C442.728 357.583 461.335 382.896 476.785 411.617C479.382 416.438 481.938 421.406 484.413 426.212C496.641 449.965 509.282 474.523 533.203 495.196C534.533 496.345 535.914 497.49 537.303 498.595C569.817 524.432 614.493 534.943 661.475 534.943C661.733 534.943 661.987 534.943 662.245 534.943C661.95 534.941 661.655 534.943 661.361 534.943ZM671.382 534.789C715.06 533.449 760.131 523.417 798.796 508.494C882.2 476.172 942.142 426.249 1000.11 377.972C1002.5 375.982 1004.89 373.996 1007.27 372.01C1012.52 367.652 1018.73 362.492 1025.07 357.29C1053.52 333.962 1087.96 306.82 1127.61 282.389C1169.81 256.393 1211.96 237.103 1256.48 223.413C1283.83 215.01 1312.74 209.091 1342.4 205.82C1369.88 202.788 1398.92 201.932 1428.71 203.273C1480.16 205.591 1535.49 214.378 1597.85 230.14C1658.65 245.483 1708.63 259.927 1755.14 275.594C1821.02 297.81 1883.78 323.407 1936.48 345.515C2059 397.062 2179.22 455.593 2293.79 519.485L2293.54 519.646C2178.98 455.763 2058.78 397.236 1936.27 345.695C1883.58 323.59 1820.83 297.997 1754.96 275.787C1708.47 260.125 1658.5 245.686 1597.71 230.347C1461.86 196.01 1353.48 193.868 1256.65 223.611C1156.14 254.513 1084.57 308.885 1025.37 357.422C1019.02 362.624 1012.81 367.782 1007.57 372.143C1005.19 374.126 1002.8 376.114 1000.41 378.104C942.422 426.397 882.457 476.337 798.995 508.683C778.299 516.67 756.278 523.014 733.538 527.538C712.372 531.745 691.507 534.177 671.382 534.789Z" fill="#FFE492"/>
<path d="M671.625 522.896C668.705 522.896 665.802 522.858 662.922 522.781C638.665 522.141 616.217 518.814 596.203 512.891C574.314 506.412 555.35 496.816 539.84 484.368C538.463 483.258 537.089 482.111 535.763 480.958C512.077 460.358 498.899 436.11 486.159 412.663C483.503 407.776 480.756 402.722 477.971 397.817C461.766 369.209 442.68 344.111 419.616 321.089C416.762 318.243 413.808 315.388 410.828 312.605C356.41 261.772 280.859 218.746 192.346 188.181C89.3556 152.673 -20.423 135.872 -116.766 140.88C-171.011 143.744 -245.531 162.561 -280.962 197.105C-301.433 217.062 -304.413 239.25 -289.581 261.268L-289.923 261.349C-297.695 249.814 -300.66 238.264 -298.744 227.019C-296.984 216.677 -291.106 206.575 -281.275 196.99C-265.769 181.874 -240.875 168.402 -209.282 158.027C-180.075 148.435 -147.229 142.269 -116.799 140.662C-66.3219 138.041 -12.3902 141.334 43.4936 150.452C94.081 158.707 144.223 171.336 192.53 187.991C281.094 218.577 356.687 261.626 411.138 312.489C414.117 315.273 417.075 318.128 419.929 320.979C443.004 344.014 462.101 369.127 478.314 397.751C481.098 402.658 483.846 407.712 486.501 412.599C499.237 436.033 512.405 460.263 536.061 480.839C537.387 481.992 538.753 483.137 540.131 484.242C603.153 534.825 714.839 529.394 797.565 501.576C884.45 472.102 949.018 423.115 1011.46 375.742L1012.1 375.256C1018.15 370.664 1024.4 365.918 1030.63 361.231C1096.31 311.789 1168.5 260.977 1264.89 230.631C1291.95 222.13 1320.46 215.887 1349.62 212.076C1376.75 208.532 1405.35 206.976 1434.62 207.451C1485.67 208.279 1540.36 215.143 1601.81 228.435C1666.4 242.354 1715 255.148 1759.4 269.921C1822.67 291.012 1883.95 317.664 1938.02 341.179C2058.4 393.815 2176.79 453.111 2289.89 517.414L2289.64 517.573C2176.55 453.276 2058.17 393.987 1937.8 341.355C1883.74 317.845 1822.47 291.197 1759.22 270.113C1714.84 255.344 1666.25 242.554 1601.69 228.639C1468.47 199.828 1361.51 200.521 1265.06 230.823C1168.73 261.149 1096.57 311.938 1030.92 361.363C1024.69 366.05 1018.44 370.798 1012.39 375.388L1011.75 375.874C980.63 399.482 948.455 423.892 913.708 445.697C874.66 470.2 836.728 488.539 797.742 501.763C756.955 515.477 712.526 522.896 671.625 522.896Z" fill="#FFE492"/>
<path d="M2285.73 515.497C2174.11 450.786 2057.57 390.736 1939.34 337.014C1934.33 334.755 1929.32 332.486 1924.28 330.209C1873.07 307.047 1820.12 283.096 1763.5 264.438C1708.56 246.386 1652.89 235.349 1605.67 226.933C1475.34 203.559 1369.78 207.088 1273.48 238.035C1174.62 269.897 1098.02 322.797 1036.47 365.306C1032.78 367.857 1029.09 370.413 1025.4 372.971C1022.67 374.859 1019.94 376.748 1017.21 378.635C982.17 402.863 950.292 424.524 915.071 444.29C874.833 466.869 836.05 483.406 796.497 494.846C759.43 505.569 719.833 511.242 683.002 511.244C676.291 511.244 669.68 511.057 663.183 510.676C639.464 509.287 617.505 505.384 597.918 499.075C576.545 492.191 557.957 482.413 542.661 470.011C541.294 468.899 539.932 467.75 538.613 466.594C515.207 446.102 501.517 422.195 488.28 399.076C485.429 394.097 482.479 388.946 479.496 383.947C462.516 355.428 442.937 330.531 419.645 307.83C416.746 305.006 413.745 302.177 410.725 299.419C355.526 249.032 279.374 206.566 190.504 176.61C86.7844 141.73 -23.2999 125.689 -119.473 131.439C-185.22 135.447 -252.452 158.751 -282.97 188.106C-303.761 208.105 -307.448 230.363 -293.64 252.473L-293.986 252.55C-301.216 240.973 -303.735 229.388 -301.474 218.115C-299.393 207.735 -293.272 197.6 -283.283 187.989C-267.615 172.916 -242.802 159.444 -211.525 149.032C-182.598 139.401 -149.921 133.074 -119.51 131.221C-69.092 128.205 -15.105 131.108 40.9518 139.848C91.6608 147.755 142.042 160.058 190.689 176.417C279.613 206.39 355.806 248.881 411.038 299.298C414.061 302.059 417.063 304.889 419.962 307.714C443.269 330.427 462.855 355.338 479.845 383.87C482.829 388.871 485.779 394.02 488.63 399.002C501.859 422.107 515.542 445.998 538.919 466.466C540.237 467.62 541.596 468.767 542.959 469.876C608.75 523.224 720.573 516.56 796.338 494.646C886.733 468.498 955.905 420.68 1016.94 378.489C1019.67 376.601 1022.39 374.712 1025.12 372.825C1028.81 370.267 1032.5 367.712 1036.2 365.16C1071.33 340.897 1106.03 317.318 1144.17 295.591C1188.03 270.603 1230.27 251.714 1273.31 237.841C1300.09 229.236 1328.19 222.669 1356.85 218.326C1383.64 214.264 1411.8 212.01 1440.55 211.623C1491.27 210.94 1545.32 215.88 1605.78 226.722C1653.01 235.142 1708.71 246.184 1763.68 264.246C1820.33 282.911 1873.29 306.869 1924.51 330.036C1929.54 332.312 1934.56 334.581 1939.57 336.84C2057.81 390.566 2174.36 450.623 2286 515.341L2285.73 515.497Z" fill="#FFE492"/>
<path d="M2281.83 513.423C2169.57 447.061 2054.86 386.247 1940.88 332.672C1934.06 329.467 1927.08 326.163 1920.33 322.969C1872.01 300.092 1822.04 276.437 1767.77 258.762C1713.57 241.175 1657.43 231.939 1609.65 225.224C1482.49 207.18 1378.34 213.542 1281.9 245.246C1189.91 275.596 1117.84 321.234 1048.15 365.369L1040.5 370.214C1034.45 374.042 1028.2 377.998 1022.04 381.879C952.274 425.761 882.435 466.889 795.252 487.925C774.097 493.03 752.374 496.567 730.68 498.445C707.385 500.459 684.756 500.488 663.419 498.529C640.245 496.4 618.784 491.929 599.632 485.239C578.789 477.959 560.572 468.002 545.494 455.648C544.135 454.53 542.783 453.379 541.475 452.225C518.356 431.854 504.173 408.3 490.457 385.52C487.396 380.437 484.229 375.18 481.032 370.075C463.265 341.645 443.199 316.948 419.686 294.574C416.747 291.778 413.701 288.971 410.633 286.235C354.657 236.295 277.905 194.388 188.671 165.042C84.2178 130.793 -26.176 115.507 -122.184 122.003C-187.33 126.505 -254.256 149.971 -284.929 179.071C-306.066 199.121 -310.482 221.465 -297.702 243.687L-298.052 243.76C-304.74 232.132 -306.807 220.503 -304.195 209.196C-301.786 198.773 -295.411 188.598 -285.246 178.956C-269.408 163.934 -244.684 150.475 -213.738 140.032C-185.098 130.366 -152.599 123.888 -122.228 121.787C-71.8686 118.38 -17.8264 120.891 38.4073 129.252C89.2415 136.812 139.855 148.787 188.844 164.85C278.13 194.212 354.926 236.145 410.935 286.114C414.003 288.852 417.053 291.661 419.992 294.457C443.519 316.842 463.596 341.553 481.371 369.998C484.568 375.103 487.735 380.362 490.796 385.445C504.504 408.212 518.681 431.755 541.774 452.102C543.078 453.251 544.429 454.4 545.785 455.519C609.992 508.124 716.677 506.647 795.109 487.722C882.222 466.704 952.031 425.591 1021.77 381.729C1027.93 377.848 1034.18 373.893 1040.22 370.064L1047.88 365.219C1082.09 343.556 1117.46 321.153 1155.88 300.312C1199.39 276.71 1240.55 258.634 1281.72 245.052C1308.22 236.339 1335.93 229.449 1364.07 224.575C1390.52 219.992 1418.25 217.038 1446.47 215.794C1496.96 213.568 1550.36 216.584 1609.73 225.009C1657.53 231.727 1713.7 240.966 1767.93 258.568C1822.24 276.25 1872.22 299.912 1920.56 322.795C1927.31 325.989 1934.28 329.291 1941.1 332.498C2055.1 386.077 2169.82 446.896 2282.09 513.264L2281.83 513.423Z" fill="#FFE492"/>
<path d="M2277.93 511.349C2166.63 444.25 2053.75 382.674 1942.41 328.334C1934.05 324.25 1925.47 320.004 1917.17 315.898C1871.46 293.268 1824.18 269.868 1772.03 253.092C1718.09 235.807 1661.69 228.443 1613.63 223.521C1490 210.663 1387.26 219.86 1290.32 252.462C1205.72 281.033 1136.26 321.525 1069.08 360.683C1062.01 364.803 1054.7 369.063 1047.58 373.191C1039.21 378.038 1032.82 381.721 1026.86 385.129C994.924 403.369 956.9 424.372 916.997 441.842C874.711 460.353 834.481 473.165 794.003 481.01C772.719 485.136 751.088 487.738 729.707 488.742C706.751 489.82 684.523 489.028 663.647 486.384C641.029 483.52 620.069 478.481 601.34 471.408C581.032 463.739 563.194 453.604 548.322 441.289C546.981 440.173 545.637 439.02 544.333 437.862C521.52 417.627 506.861 394.436 492.681 372.008C489.392 366.807 485.993 361.429 482.564 356.205C463.997 327.854 443.442 303.359 419.719 281.317C416.736 278.546 413.645 275.766 410.533 273.051C353.78 223.558 276.424 182.21 186.829 153.474C81.6502 119.855 -29.0529 105.328 -124.891 112.566C-179.423 116.775 -250.647 136.165 -286.837 169.991C-308.354 190.102 -313.518 212.547 -301.765 234.897L-302.115 234.963C-308.262 223.277 -309.868 211.596 -306.892 200.246C-304.144 189.77 -297.503 179.551 -287.147 169.872C-271.14 154.911 -246.507 141.474 -215.904 131.009C-187.552 121.314 -155.247 114.688 -124.935 112.348C-74.635 108.549 -20.5339 110.669 35.8692 118.651C86.825 125.862 137.674 137.512 187.002 153.28C276.649 182.032 354.049 223.404 410.835 272.926C413.947 275.64 417.041 278.425 420.025 281.198C443.758 303.252 464.325 327.759 482.903 356.124C486.335 361.35 489.735 366.727 493.024 371.929C507.193 394.346 521.848 417.524 544.635 437.736C545.939 438.892 547.28 440.043 548.62 441.157C602.036 485.391 693.727 500.211 793.889 480.797C884.597 463.217 958.59 423.815 1026.61 384.966C1032.57 381.558 1038.96 377.875 1047.32 373.028C1054.44 368.9 1061.75 364.641 1068.82 360.52C1101.89 341.242 1136.09 321.309 1172.56 302.644C1213.8 281.535 1252.27 265.056 1290.14 252.266C1316.39 243.439 1343.69 236.225 1371.3 230.827C1397.44 225.713 1424.73 222.061 1452.39 219.968C1502.76 216.16 1555.53 217.249 1613.7 223.299C1661.78 228.225 1718.22 235.591 1772.2 252.891C1824.39 269.679 1871.67 293.086 1917.41 315.722C1925.7 319.828 1934.28 324.074 1942.65 328.158C2053.99 382.505 2166.88 444.085 2278.19 511.189L2277.93 511.349Z" fill="#FFE492"/>
<path d="M2274.02 509.276C2163.69 441.435 2052.64 379.095 1943.95 323.993C1934.7 319.306 1925.2 314.386 1916.02 309.629C1872.26 286.969 1827.02 263.537 1776.29 247.417C1722.31 230.339 1665.79 224.891 1617.61 221.813C1499.58 214.071 1395.27 226.456 1298.73 259.674C1221.86 286.244 1155.97 321.79 1092.24 356.166C1079.37 363.109 1066.06 370.29 1053.12 377.134C1045.21 381.323 1038.2 385.001 1031.68 388.378C1001.36 404.065 961.035 424.179 917.943 440.616C874.644 457.131 833.691 468.082 792.746 474.094C748.089 480.652 703.519 480.7 663.86 474.237C641.809 470.642 621.346 465.038 603.037 457.578C583.27 449.523 565.812 439.212 551.142 426.935C549.812 425.816 548.479 424.661 547.183 423.503C524.694 403.422 509.578 380.612 494.964 358.554C491.428 353.218 487.774 347.702 484.087 342.341C464.707 314.065 443.662 289.769 419.747 268.068C416.72 265.32 413.585 262.564 410.429 259.874C352.899 210.828 274.942 170.037 184.986 141.915C79.082 108.928 -31.9304 95.1584 -127.603 103.138C-192.44 108.664 -257.178 131.866 -288.691 160.871C-310.62 181.055 -316.546 203.617 -305.828 226.117L-306.182 226.176C-311.784 214.419 -312.926 202.677 -309.578 191.278C-306.484 180.742 -299.56 170.471 -289 160.75C-272.824 145.86 -248.287 132.454 -218.041 121.98C-189.987 112.265 -157.885 105.494 -127.654 102.918C-77.4131 98.7268 -23.253 100.457 33.3231 108.058C84.4041 114.922 135.489 126.246 185.155 141.717C275.163 169.857 353.164 210.67 410.731 259.747C413.887 262.437 417.022 265.195 420.053 267.945C443.978 289.659 465.035 313.966 484.426 342.255C488.113 347.616 491.767 353.135 495.302 358.471C509.91 380.517 525.018 403.316 547.485 423.377C548.781 424.535 550.111 425.687 551.44 426.805C603.939 470.753 694.113 488.35 792.658 473.881C882.496 460.688 960.512 424.909 1031.43 388.213C1037.95 384.836 1044.97 381.16 1052.88 376.971C1065.81 370.127 1079.12 362.948 1091.99 356.005C1155.73 321.622 1221.64 286.068 1298.54 259.487C1324.56 250.534 1351.47 242.999 1378.51 237.086C1404.38 231.433 1431.22 227.081 1458.3 224.151C1508.66 218.703 1560.78 217.868 1617.65 221.597C1665.86 224.677 1722.43 230.128 1776.46 247.225C1827.23 263.357 1872.49 286.797 1916.26 309.466C1925.44 314.223 1934.94 319.141 1944.18 323.828C2052.89 378.934 2163.95 441.279 2274.28 509.124L2274.02 509.276Z" fill="#FFE492"/>
<path d="M2270.11 507.202C2160.77 438.613 2051.55 375.513 1945.48 319.654C1935.74 314.52 1925.71 309.085 1916.01 303.828C1873.86 280.976 1830.27 257.345 1780.56 241.744C1726.35 224.811 1669.78 221.304 1621.59 220.107C1508.02 217.078 1405.16 232.379 1307.15 266.888C1238.41 291.204 1177.13 321.979 1117.87 351.739C1097.5 361.973 1078.25 371.639 1058.67 381.076C1050.71 384.917 1043.46 388.369 1036.5 391.625C991.583 412.615 954.215 427.791 918.894 439.383C874.582 453.927 832.911 463.019 791.499 467.175C775.433 468.787 759.426 469.59 743.71 469.59C715.851 469.59 688.895 467.072 664.078 462.083C619.166 453.056 582.121 436.398 553.971 412.573C552.645 411.444 551.323 410.288 550.041 409.134C527.895 389.228 512.356 366.822 497.329 345.152C493.52 339.662 489.587 333.987 485.62 328.468C465.411 300.258 443.872 276.164 419.785 254.809C416.713 252.086 413.534 249.354 410.334 246.688C352.027 198.089 273.466 157.857 183.149 130.345C76.5191 97.9913 -34.7991 84.977 -130.306 93.6987C-195.412 99.7678 -258.283 122.53 -290.469 151.689C-312.844 171.957 -319.555 194.653 -309.883 217.324L-310.24 217.379C-315.29 205.54 -315.96 193.728 -312.229 182.27C-308.774 171.664 -301.559 161.335 -290.775 151.568C-274.429 136.759 -249.999 123.397 -220.122 112.923C-192.37 103.193 -160.492 96.2897 -130.361 93.4808C-80.1786 88.8976 -25.9596 90.236 30.786 97.4586C81.9922 103.977 133.309 114.975 183.318 130.146C273.687 157.677 352.292 197.93 410.636 246.558C413.836 249.226 417.015 251.958 420.09 254.683C444.193 276.05 465.742 300.157 485.959 328.378C489.926 333.897 493.863 339.574 497.668 345.064C512.687 366.723 528.219 389.12 550.347 409.009C551.629 410.16 552.947 411.316 554.273 412.443C606.839 456.937 693.281 476.806 791.436 466.955C884.873 457.577 967.632 423.525 1036.27 391.449C1043.23 388.193 1050.48 384.743 1058.44 380.902C1078.01 371.465 1097.26 361.801 1117.64 351.567C1176.91 321.8 1238.2 291.021 1306.96 266.696C1332.78 257.605 1359.29 249.746 1385.74 243.335C1411.36 237.128 1437.77 232.076 1464.23 228.322C1514.69 221.166 1566.17 218.405 1621.61 219.884C1669.84 221.082 1726.46 224.593 1780.73 241.546C1830.48 257.158 1874.08 280.8 1916.26 303.661C1925.95 308.918 1935.98 314.353 1945.72 319.484C2051.79 375.348 2161.02 438.454 2270.38 507.048L2270.11 507.202Z" fill="#FFE492"/>
<path d="M2266.21 505.129C2156.33 434.809 2051.92 372.72 1947.02 315.313C1937.01 309.836 1927.16 304.242 1916.72 298.321C1875.94 275.171 1833.77 251.236 1784.83 236.071C1729.94 219.145 1670.89 217.736 1625.57 218.401C1517.17 219.783 1415.77 238.004 1315.56 274.104C1255.44 295.868 1199.94 322.005 1146.26 347.283C1118.04 360.568 1091.4 373.114 1064.22 385.021C1056.16 388.558 1048.66 391.781 1041.32 394.874C995.79 414.017 957.191 427.767 919.837 438.148C874.498 450.749 832.109 457.98 790.246 460.256C768.737 461.425 747.375 461.205 726.753 459.603C704.92 457.905 683.904 454.65 664.292 449.928C620.82 439.46 584.656 422.063 556.8 398.216C555.485 397.084 554.174 395.926 552.9 394.773C531.125 375.071 515.196 353.093 499.789 331.839C495.679 326.168 491.429 320.303 487.153 314.602C466.096 286.453 444.071 262.56 419.818 241.557C416.699 238.858 413.476 236.15 410.238 233.509C351.154 185.356 271.993 145.684 181.315 118.781C97.62 94.0532 11.3101 81.1511 -67.8362 81.1511C-90.211 81.1511 -111.997 82.1813 -133.009 84.266C-197.33 90.7732 -259.807 113.617 -292.181 142.463C-315.031 162.826 -322.556 185.676 -313.941 208.541L-314.302 208.589C-318.799 196.658 -318.987 184.764 -314.862 173.24C-311.039 162.557 -303.511 152.16 -292.491 142.34C-275.976 127.624 -251.66 114.317 -222.166 103.854C-194.325 93.9761 -163.516 87.1277 -133.075 84.0503C-82.9516 79.0752 -28.6737 80.024 28.2451 86.8658C79.5728 93.034 131.129 103.704 181.477 118.581C272.207 145.499 351.416 185.193 410.537 233.374C413.778 236.016 417.004 238.726 420.124 241.427C444.388 262.441 466.424 286.345 487.492 314.507C491.768 320.209 496.022 326.073 500.132 331.746C515.531 352.991 531.453 374.961 553.209 394.647C554.484 395.799 555.795 396.957 557.106 398.086C609.196 442.679 694.158 465.256 790.217 460.034C887.418 454.749 975.356 422.336 1041.11 394.689C1048.45 391.596 1055.95 388.374 1064.01 384.838C1091.18 372.936 1117.83 360.388 1146.03 347.105C1199.72 321.825 1255.24 295.681 1315.38 273.91C1366.97 255.324 1417.59 241.779 1470.15 232.498C1520.84 223.548 1571.68 218.863 1625.57 218.176C1656.32 217.725 1681.41 218.509 1704.52 220.64C1734.37 223.391 1760.69 228.373 1785 235.871C1833.99 251.049 1876.18 274.998 1916.98 298.158C1927.41 304.08 1937.27 309.671 1947.27 315.148C2052.17 372.557 2156.59 434.65 2266.48 504.975L2266.21 505.129Z" fill="#FFE492"/>
<path d="M2262.3 503.055C2153.42 431.965 2050.79 369.136 1948.55 310.972C1938.44 305.218 1928.46 299.289 1917.9 293.013C1878.34 269.499 1837.43 245.18 1789.09 230.396C1733.75 213.549 1674.76 214.223 1629.56 216.69C1527.26 222.081 1427.3 243.221 1323.98 281.313C1273.07 300.172 1224.6 321.754 1177.73 342.627C1140.67 359.126 1105.68 374.712 1069.77 388.957C1061.66 392.18 1053.7 395.262 1046.13 398.115C1000.52 415.294 959.515 427.98 920.78 436.9C874.399 447.581 831.292 452.957 788.995 453.331C767.474 453.52 746.197 452.358 725.767 449.873C704.35 447.266 683.739 443.192 664.506 437.759C622.526 425.9 587.238 407.763 559.626 383.85C558.329 382.721 557.025 381.56 555.755 380.4C534.389 360.938 518.113 339.424 502.372 318.619C497.919 312.733 493.311 306.644 488.682 300.725C466.763 272.629 444.249 248.938 419.852 228.294C416.688 225.619 413.421 222.936 410.139 220.318C350.278 172.613 270.513 133.499 179.474 107.206C71.3967 76.1232 -40.5439 64.6233 -135.719 74.8244C-199.208 81.7476 -261.269 104.65 -293.824 133.169C-317.189 153.639 -325.55 176.661 -318.007 199.749L-318.368 199.791C-322.302 187.756 -322 175.769 -317.466 164.166C-313.256 153.395 -305.407 142.923 -294.129 133.043C-277.452 118.433 -253.258 105.192 -224.161 94.751C-196.641 84.8758 -166.083 77.9107 -135.785 74.6065C-85.7172 69.2418 -31.384 69.7965 25.7041 76.2597C77.1571 82.0844 128.945 92.4286 179.632 107.006C270.726 133.312 350.536 172.45 410.43 220.184C413.716 222.801 416.986 225.487 420.15 228.164C444.562 248.819 467.084 272.521 489.013 300.628C493.646 306.547 498.25 312.636 502.707 318.525C518.441 339.321 534.709 360.826 556.06 380.275C557.331 381.433 558.635 382.593 559.928 383.72C612.567 429.305 693.915 453.952 788.987 453.106C866.13 452.424 947.777 434.888 1045.94 397.923C1053.5 395.07 1061.45 391.99 1069.57 388.768C1105.46 374.525 1140.46 358.944 1177.5 342.445C1224.39 321.569 1272.86 299.983 1323.79 281.119C1375.88 261.913 1425.69 247.375 1476.06 236.67C1527.1 225.826 1577.29 219.215 1629.52 216.464C1674.78 213.992 1733.84 213.32 1789.26 230.193C1837.65 244.995 1878.58 269.325 1918.17 292.85C1928.72 299.126 1938.69 305.052 1948.8 310.805C2051.06 368.971 2153.69 431.804 2262.57 502.899L2262.3 503.055Z" fill="#FFE492"/>
<path d="M2258.4 500.981C2150.53 429.118 2049.69 365.545 1950.09 306.633C1939.98 300.652 1929.99 294.437 1919.43 287.858C1880.98 263.922 1841.23 239.173 1793.36 224.723C1737.5 207.938 1678.61 210.7 1633.54 214.982C1537.29 223.952 1441.6 247.322 1332.4 288.527C1291.44 304.051 1251.42 321.08 1212.71 337.549C1165.7 357.55 1121.3 376.444 1075.32 392.899C1067.04 395.867 1058.84 398.715 1050.95 401.361C1004.52 416.934 962.25 428.152 921.725 435.654C899.026 439.856 876.618 442.901 855.123 444.704C832.196 446.626 809.527 447.2 787.745 446.412C743.551 444.812 702.16 437.807 664.725 425.594C624.296 412.403 589.888 393.529 562.46 369.49C561.171 368.352 559.878 367.19 558.615 366.036C537.706 346.86 521.139 325.857 505.122 305.548C500.271 299.399 495.258 293.042 490.216 286.856C467.414 258.806 444.409 235.316 419.887 215.039C416.679 212.387 413.364 209.727 410.042 207.136C349.404 159.876 269.038 121.321 177.638 95.6425C68.8393 65.1956 -43.4071 54.453 -138.424 65.3915C-240.162 77.2854 -339.3 128.676 -322.064 190.963L-322.428 190.998C-326.741 175.417 -324.214 160.067 -314.922 145.371C-306.436 131.949 -292.51 119.318 -273.531 107.831C-255.885 97.1504 -234.715 87.9289 -210.613 80.4223C-187.689 73.2834 -162.751 68.0089 -138.498 65.1736C-88.4883 59.4171 -34.0962 59.5822 23.165 65.6667C74.7433 71.1459 126.767 81.1642 177.793 95.4443C269.244 121.141 349.658 159.717 410.333 207.004C413.659 209.597 416.974 212.257 420.185 214.912C444.719 235.197 467.734 258.701 490.547 286.761C495.59 292.947 500.602 299.305 505.453 305.455C521.467 325.758 538.026 346.753 558.924 365.917C560.184 367.071 561.473 368.233 562.762 369.369C615.478 415.567 695.387 442.848 787.767 446.194C865.974 449.023 952.004 434.298 1050.77 401.172C1058.66 398.526 1066.85 395.68 1075.13 392.712C1121.1 376.262 1165.5 357.37 1212.5 337.37C1251.21 320.9 1291.24 303.868 1332.2 288.342C1441.45 247.119 1537.18 223.741 1633.48 214.764C1663.76 211.887 1688.83 210.967 1712.39 211.871C1742.5 213.027 1769.03 217.166 1793.52 224.525C1841.44 238.99 1881.22 263.755 1919.69 287.704C1930.26 294.281 1940.24 300.496 1950.34 306.474C2049.95 365.391 2150.8 428.966 2258.67 500.834L2258.4 500.981Z" fill="#FFE492"/>
<path d="M2254.5 498.907C2147.66 426.261 2048.58 361.948 1951.63 302.292C1941.59 296.119 1931.68 289.654 1921.18 282.805C1883.78 258.412 1845.1 233.187 1797.63 219.048C1740.55 202.121 1678.92 207.645 1637.52 213.271C1525.17 228.355 1424.49 263.422 1340.82 295.74C1310.75 307.403 1280.75 319.757 1251.74 331.704C1193.54 355.67 1138.58 378.306 1080.88 396.842C1072.39 399.569 1063.95 402.182 1055.78 404.61C1008.44 418.653 964.903 428.4 922.68 434.406C874.814 441.214 829 442.927 786.501 439.493C742.841 435.964 701.944 427.194 664.951 413.425C626.15 398.984 592.622 379.372 565.294 355.133C564.019 353.995 562.734 352.83 561.478 351.672C541.088 332.849 524.315 312.422 508.091 292.667C502.777 286.193 497.278 279.501 491.753 272.987C467.721 244.585 444.897 221.962 419.929 201.785C416.677 199.156 413.321 196.523 409.951 193.954C348.528 147.143 267.559 109.147 175.798 84.0763C66.2769 54.2678 -46.2788 44.2803 -141.134 55.9563C-243.237 68.6911 -340.349 119.384 -326.125 182.177L-326.49 182.206C-330.018 166.627 -326.965 151.292 -317.418 136.629C-308.667 123.194 -294.66 110.55 -275.781 99.0499C-258.175 88.3249 -237.115 79.0352 -213.182 71.4339C-190.395 64.1959 -165.505 58.7696 -141.207 55.7383C-91.2532 49.59 -36.8059 49.3654 20.6248 55.0691C72.3283 60.2027 124.588 69.8952 175.952 83.876C267.769 108.96 348.782 146.978 410.235 193.818C413.605 196.389 416.964 199.024 420.22 201.653C445.202 221.839 468.034 244.475 492.077 272.888C497.602 279.402 503.101 286.096 508.415 292.57C524.636 312.319 541.405 332.738 561.78 351.553C563.036 352.711 564.318 353.874 565.592 355.012C618.717 402.129 697.186 432.055 786.545 439.275C866.69 445.751 954.701 434.346 1055.61 404.412C1063.78 401.986 1072.22 399.376 1080.7 396.648C1138.38 378.117 1193.34 355.485 1251.53 331.521C1280.54 319.574 1310.54 307.218 1340.62 295.553C1396.88 273.824 1443.69 257.769 1487.9 245.03C1539.96 230.035 1588.87 219.576 1637.44 213.056C1667.04 209.031 1692.85 207.209 1716.33 207.486C1746.56 207.843 1773.21 211.559 1797.79 218.85C1845.33 233.006 1884.03 258.247 1921.45 282.656C1931.95 289.502 1941.86 295.967 1951.89 302.135C2048.85 361.794 2147.92 426.111 2254.77 498.76L2254.5 498.907Z" fill="#FFE492"/>
<path d="M2250.59 496.832C2144.78 423.399 2047.49 358.345 1953.16 297.949C1943.27 291.615 1933.48 284.925 1923.11 277.841C1886.7 252.957 1849.05 227.226 1801.9 213.373C1744.19 196.486 1682.73 204.25 1641.51 211.561C1539.71 229.46 1448.92 263.541 1349.24 302.952C1331.26 310.087 1313.08 317.45 1295.49 324.574C1227.85 351.967 1157.92 380.292 1086.43 400.782C1077.74 403.274 1069.05 405.654 1060.6 407.855C1012.94 420.253 966.855 428.764 923.627 433.151C874.656 438.122 828.102 437.926 785.245 432.572C742.197 427.194 701.797 416.656 665.165 401.251C628.094 385.661 595.44 365.314 568.111 340.776C566.848 339.635 565.573 338.469 564.325 337.311C544.55 318.927 527.671 299.166 511.347 280.056C505.465 273.17 499.384 266.051 493.274 259.123C468.303 230.75 445.003 208.321 419.951 188.535C416.662 185.937 413.259 183.326 409.841 180.777C347.651 134.406 266.085 96.9698 173.956 72.5106C63.717 43.3405 -49.1444 34.1103 -143.844 46.5215C-242.706 59.6195 -341.613 108.533 -330.191 173.39L-330.556 173.412C-333.3 157.833 -329.72 142.516 -319.919 127.886C-310.906 114.435 -296.815 101.78 -278.038 90.2667C-243.395 69.028 -194.513 53.0044 -143.925 46.3035C-94.0304 39.7655 -39.5241 39.1491 18.0796 44.472C69.9083 49.2621 122.4 58.6267 174.103 72.3081C266.284 96.7805 347.898 134.241 410.128 180.634C413.549 183.186 416.953 185.796 420.245 188.396C445.309 208.193 468.619 230.631 493.598 259.015C499.708 265.945 505.793 273.064 511.675 279.95C527.995 299.056 544.871 318.813 564.634 337.188C565.879 338.345 567.153 339.51 568.417 340.65C623.092 389.745 698.095 421.455 785.315 432.354C866.078 442.445 958.642 434.135 1060.44 407.653C1068.89 405.451 1077.58 403.074 1086.26 400.584C1157.72 380.101 1227.65 351.78 1295.27 324.391C1312.86 317.268 1331.04 309.904 1349.03 302.769C1392.66 285.518 1443.43 265.73 1493.82 249.208C1546.53 231.928 1594.8 219.545 1641.39 211.352C1670.73 206.15 1696.53 203.451 1720.26 203.103C1750.19 202.663 1777.71 206.053 1802.05 213.177C1823.17 219.382 1844.43 228.643 1867.04 241.491C1887.01 252.834 1905.5 265.474 1923.38 277.696C1933.74 284.778 1943.53 291.468 1953.42 297.799C2047.76 358.197 2145.05 423.254 2250.86 496.688L2250.59 496.832Z" fill="#FFE492"/>
<path d="M2246.68 494.758C2141.91 420.532 2046.4 354.736 1954.69 293.609C1944.98 287.137 1935.36 280.245 1925.18 272.95C1889.71 247.548 1853.04 221.282 1806.16 207.702C1762.35 195.05 1709.79 195.755 1645.49 209.855C1555.57 229.458 1475.2 262.247 1390.11 296.964C1379.51 301.288 1368.56 305.756 1357.65 310.17C1353.39 311.902 1349.11 313.639 1344.84 315.374C1263.76 348.326 1179.93 382.401 1091.98 404.727C1083.09 406.985 1074.15 409.132 1065.42 411.104C1016.71 422.095 969.33 429.091 924.588 431.896C874.486 435.035 827.184 432.935 784.003 425.653C741.626 418.505 701.723 406.199 665.404 389.077C630.201 372.481 598.423 351.401 570.95 326.418C569.698 325.276 568.435 324.107 567.194 322.947C548.17 305.14 531.346 286.175 515.07 267.836C508.481 260.409 501.664 252.728 494.817 245.252C468.88 216.899 445.11 194.663 419.998 175.278C416.661 172.702 413.218 170.118 409.756 167.593C346.778 121.671 264.608 84.7915 172.118 60.9443C61.1643 32.4148 -52.0103 23.9396 -146.552 37.086C-243.598 50.6926 -342.364 100.007 -334.25 164.604L-334.619 164.621C-336.574 149.04 -332.471 133.741 -322.417 119.148C-313.139 105.682 -298.966 93.0113 -280.289 81.4895C-245.793 60.2068 -197.08 43.9455 -146.637 36.8725C-96.7968 29.9427 -42.2353 28.9345 15.5379 33.8787C67.4918 38.321 120.223 47.3597 172.265 60.7417C264.807 84.6044 347.029 121.503 410.032 167.45C413.494 169.975 416.945 172.564 420.282 175.139C445.404 194.535 469.19 216.778 495.134 245.142C501.984 252.618 508.798 260.301 515.391 267.728C531.659 286.063 548.483 305.023 567.499 322.823C568.741 323.983 570 325.15 571.252 326.293C627.114 377.091 700.714 411.373 784.099 425.435C866.413 439.317 961.017 434.423 1065.29 410.893C1074.01 408.92 1082.94 406.776 1091.83 404.52C1179.75 382.203 1263.57 348.134 1344.63 315.187C1348.91 313.45 1353.18 311.715 1357.44 309.983C1368.35 305.569 1379.3 301.1 1389.9 296.779C1475.01 262.055 1555.4 229.257 1645.36 209.645C1674.41 203.275 1700.2 199.702 1724.2 198.718C1754.25 197.487 1781.87 200.444 1806.32 207.501C1827.32 213.584 1848.31 222.887 1870.5 235.943C1890.08 247.462 1908.07 260.347 1925.46 272.807C1935.64 280.1 1945.26 286.99 1954.97 293.46C2046.68 354.589 2142.2 420.387 2246.97 494.614L2246.68 494.758Z" fill="#FFE492"/>
<path d="M2242.78 492.684C2147.15 423.518 2050.75 355.078 1956.23 289.269C1946.61 282.607 1937.07 275.451 1926.97 267.876C1894.14 243.234 1856.92 215.306 1810.43 202.029C1766.1 189.4 1713.45 191.401 1649.46 208.145C1573.38 227.988 1506.05 257.164 1434.76 288.054C1412.44 297.726 1389.35 307.731 1366.07 317.382C1325.42 334.264 1281.46 352.128 1235.37 368.398C1186.01 385.824 1140.92 398.995 1097.52 408.668C1088.4 410.7 1079.22 412.613 1070.23 414.349C1020.49 423.954 971.82 429.42 925.564 430.595C874.358 431.894 826.308 427.905 782.744 418.73C702.298 401.577 631.987 365.689 573.768 312.059C572.527 310.915 571.275 309.744 570.041 308.583C551.983 291.563 535.453 273.606 519.468 256.24C511.944 248.066 504.165 239.613 496.338 231.386C469.415 203.04 445.165 181 420.024 162.026C416.64 159.473 413.152 156.913 409.649 154.414C345.905 108.934 263.131 72.6163 170.28 49.3789C58.6084 21.4878 -54.8718 13.7721 -149.259 27.6516C-246.894 42.0902 -343.185 90.7511 -338.313 155.819L-338.681 155.827C-339.848 140.242 -335.215 124.96 -324.913 110.405C-315.367 96.9215 -301.113 84.2373 -282.543 72.7066C-265.048 61.8429 -244.312 52.3441 -220.914 44.4721C-198.196 36.8312 -174.12 31.0989 -149.351 27.4358C-99.5663 20.1164 -44.9458 18.7163 12.9968 23.2797C65.0759 27.3808 118.039 36.0916 170.42 49.1742C263.327 72.4248 346.149 108.765 409.929 154.267C413.432 156.767 416.927 159.33 420.312 161.883C445.463 180.868 469.724 202.916 496.659 231.272C504.485 239.501 512.264 247.954 519.789 256.13C535.773 273.494 552.299 291.448 570.35 308.462C571.58 309.625 572.836 310.794 574.074 311.938C632.249 365.526 702.496 401.386 782.866 418.521C865.651 435.956 964.98 434.441 1070.11 414.138C1079.1 412.401 1088.28 410.491 1097.39 408.461C1194.43 386.837 1283.23 351.521 1365.85 317.2C1389.14 307.549 1412.22 297.546 1434.54 287.873C1505.84 256.977 1573.19 227.794 1649.31 207.942C1713.4 191.172 1766.16 189.171 1810.58 201.829C1831.41 207.775 1852.08 217.095 1873.79 230.319C1892.94 241.979 1910.39 255.075 1927.26 267.737C1937.36 275.312 1946.89 282.467 1956.51 289.123C2051.03 354.935 2147.44 423.375 2243.06 492.544L2242.78 492.684Z" fill="#FFE492"/>
<path d="M2238.87 490.611C2144.71 421.061 2050.13 351.86 1957.76 284.928C1948.44 278.194 1939.19 270.912 1929.4 263.203C1897.37 237.986 1861.07 209.404 1814.69 196.352C1769.84 183.745 1717.09 187.043 1653.44 206.43C1586.75 226.713 1525.48 255.353 1466.22 283.052C1436.51 296.94 1405.79 311.302 1374.48 324.592C1325.07 345.588 1283.49 361.605 1243.64 375C1194.5 391.517 1148.51 403.818 1103.07 412.606C1093.74 414.411 1084.31 416.089 1075.05 417.592C1026.78 425.422 979.388 429.385 934.049 429.387C931.53 429.387 929.025 429.374 926.521 429.349C874.103 428.839 825.309 422.935 781.495 411.805C760.346 406.403 739.636 399.545 719.943 391.422C701.431 383.788 683.241 374.796 665.875 364.696C634.631 346.526 605.424 324.609 576.593 297.698C575.355 296.54 574.121 295.38 572.895 294.215C556.166 278.337 540.34 261.739 525.036 245.686C516.201 236.421 507.067 226.838 497.866 217.511C469.539 188.775 445.544 167.572 420.053 148.765C416.624 146.236 413.092 143.7 409.545 141.226C345.028 96.1972 261.654 60.4385 168.442 37.8109C56.0555 10.5604 -57.7341 3.60191 -151.966 18.2145C-247.771 33.1132 -343.937 82.1438 -342.372 147.029L-342.74 147.031C-343.469 116.808 -323.43 88.0699 -284.79 63.9233C-267.325 53.009 -246.7 43.4419 -223.481 35.4818C-200.889 27.7375 -176.86 21.8555 -152.058 17.9987C-102.333 10.2874 -47.6534 8.4977 10.4587 12.6803C62.663 16.438 115.862 24.8229 168.578 37.6039C261.849 60.247 345.271 96.0277 409.829 141.083C413.376 143.559 416.915 146.097 420.344 148.627C445.846 167.444 469.853 188.654 498.187 217.401C507.387 226.731 516.525 236.313 525.357 245.579C540.66 261.629 556.483 278.225 573.208 294.099C574.434 295.263 575.664 296.423 576.902 297.579C638.167 354.766 705.137 392.063 781.638 411.602C887.598 438.52 999.627 429.603 1074.95 417.381C1084.21 415.877 1093.63 414.202 1102.95 412.397C1207.48 392.184 1302.85 354.759 1374.27 324.413C1405.57 311.128 1436.29 296.767 1466 282.88C1525.27 255.176 1586.55 226.528 1653.28 206.236C1681.76 197.561 1707.53 192.233 1732.08 189.953C1762.35 187.139 1790.19 189.226 1814.85 196.156C1835.61 202.001 1856.09 211.396 1877.45 224.877C1896.27 236.756 1913.26 250.133 1929.7 263.073C1939.49 270.78 1948.73 278.06 1958.05 284.789C2050.42 351.721 2145 420.923 2239.16 490.472L2238.87 490.611Z" fill="#FFE492"/>
<path d="M2234.97 488.537L1959.3 280.589C1950.3 273.798 1941.36 266.408 1931.89 258.586C1900.65 232.773 1865.25 203.517 1818.96 190.681C1774.19 178.27 1719.85 182.994 1657.42 204.724C1597.41 225.612 1542.67 253.391 1489.74 280.256C1455.24 297.768 1419.56 315.874 1382.9 331.81C1272.72 379.707 1176.43 407.996 1079.87 420.841C1039.81 426.168 1000.3 428.85 961.974 428.85C950.358 428.85 938.859 428.603 927.482 428.11C873.827 425.785 824.289 417.971 780.25 404.886C739.434 392.756 702.094 375.634 666.11 352.538C637.375 334.095 609.829 312.108 579.425 283.343C563.378 268.162 547.839 252.389 532.811 237.136C498.802 202.619 463.635 166.926 420.097 135.513C353.315 87.3323 265.657 49.5483 166.6 26.2448C53.503 -0.362912 -60.5959 -6.56631 -154.673 8.77929C-245.757 23.6362 -344.615 70.4853 -346.434 138.243L-346.803 138.238C-345.989 107.952 -325.323 79.2181 -287.041 55.1419C-252.427 33.3728 -205.452 16.8318 -154.769 8.56576C-105.099 0.464796 -50.3606 -1.71674 7.91722 2.08499C60.2468 5.49708 113.681 13.5584 166.736 26.0401C215.751 37.5707 262.302 52.7491 305.1 71.1545C348.255 89.7141 387.041 111.318 420.377 135.368C463.934 166.792 499.111 202.494 533.128 237.02C548.155 252.271 563.694 268.041 579.738 283.219C624.097 325.19 686.997 376.924 780.416 404.683C887.55 436.517 1002.35 430.921 1079.79 420.621C1176.3 407.785 1272.55 379.506 1382.68 331.627C1419.33 315.698 1455 297.592 1489.5 280.085C1542.45 253.215 1597.2 225.429 1657.24 204.53C1719.77 182.763 1774.24 178.034 1819.11 190.479C1839.84 196.226 1860.13 205.703 1881.15 219.455C1899.64 231.56 1916.19 245.233 1932.19 258.454C1941.65 266.276 1950.59 273.661 1959.59 280.45L2235.26 488.398L2234.97 488.537Z" fill="#FFE492"/>
<path d="M2232.75 472.551C2162.55 414.651 2102.32 367.667 2043.21 324.695C2014.51 303.819 1985.21 283.272 1956.1 263.623C1947.3 257.679 1938.58 251.357 1929.35 244.663C1906.14 227.838 1882.15 210.44 1854.53 197.529C1839.71 190.584 1825.44 185.611 1810.9 182.327C1766.29 172.146 1713.95 178.877 1655.33 202.337C1624.99 214.46 1597.37 228.256 1574.35 240.152C1549.98 252.746 1525.94 266.634 1502.69 280.065C1469.27 299.37 1434.72 319.332 1397.57 336.476C1374.96 346.939 1352.05 356.288 1329.46 364.266C1284.27 380.226 1235.77 393.377 1185.29 403.353C1154.11 409.449 1122.77 414.056 1092.16 417.046C1065.78 419.613 1039.35 421.094 1013.6 421.448C975.064 421.981 937.519 419.949 902.006 415.403C864.247 410.569 828.513 402.854 795.8 392.468C766.63 383.207 739.077 371.546 711.567 356.817C660.306 329.392 619.42 297.682 589.528 273.119C574.843 260.997 560.505 248.634 546.638 236.678C506.709 202.247 468.994 169.726 421.799 140.759C383.307 117.288 339.39 97.0334 291.255 80.5541C254.266 67.8898 214.035 57.5324 171.683 49.7683C161.595 47.9213 151.316 46.1999 141.139 44.6567C97.3249 38.0241 48.0007 33.705 -5.45957 31.8185C-59.3581 29.8725 -105.99 31.5565 -148.011 36.9718C-171.767 40.0097 -194.782 44.7756 -216.428 51.1353C-292.845 73.5891 -341.915 111.283 -347.69 151.968L-348.151 151.944C-346.611 141.098 -342.092 130.415 -334.722 120.187C-327.72 110.473 -318.104 101.104 -306.141 92.3402C-283.538 75.786 -252.585 61.4508 -216.63 50.8866C-194.952 44.5159 -171.899 39.7433 -148.106 36.7011C-106.042 31.2813 -59.3729 29.5951 -5.43013 31.5433C48.0596 33.4299 97.4096 37.7533 141.253 44.3904C151.441 45.9357 161.724 47.6572 171.819 49.5063C214.205 57.2749 254.468 67.641 291.487 80.3164C339.655 96.8067 383.609 117.079 422.12 140.565C469.344 169.55 507.067 202.08 547.01 236.52C560.873 248.475 575.211 260.836 589.892 272.956C619.77 297.508 660.638 329.203 711.87 356.61C739.349 371.324 766.873 382.973 796.01 392.223C860.033 412.548 933.235 422.289 1013.59 421.173C1039.31 420.819 1065.72 419.337 1092.08 416.773C1122.67 413.783 1153.99 409.18 1185.14 403.089C1235.59 393.119 1284.07 379.977 1329.23 364.026C1351.8 356.055 1374.7 346.71 1397.28 336.256C1434.41 319.121 1468.96 299.163 1502.36 279.864C1525.62 266.432 1549.66 252.539 1574.04 239.941C1597.07 228.038 1624.71 214.238 1655.07 202.106C1681.17 191.661 1706.44 184.445 1730.19 180.656C1759.35 176.002 1786.57 176.478 1811.07 182.069C1825.64 185.365 1839.96 190.351 1854.82 197.311C1882.47 210.242 1906.48 227.65 1929.7 244.486C1938.93 251.178 1947.65 257.501 1956.45 263.44C1985.56 283.091 2014.87 303.641 2043.57 324.521C2102.69 367.498 2162.92 414.486 2233.12 472.39L2232.75 472.551Z" fill="#FFE492"/>
<path d="M2230.53 456.56C2165.44 397.681 2104.36 348.41 2043.78 305.935C2014.24 285.187 1983.67 265.243 1952.91 246.657C1944.75 241.726 1936.69 236.601 1928.16 231.177C1902.62 214.933 1876.2 198.137 1846.62 186.516C1831.68 180.623 1817.37 176.52 1802.85 173.971C1747.27 164.206 1690.82 182.706 1653.24 199.944C1626.61 212.122 1602.3 225.892 1577.67 240.106C1556.11 252.548 1535.83 265.932 1514.36 280.1C1482.49 301.132 1449.53 322.879 1412.23 341.139C1390.1 352.034 1367.01 361.453 1343.59 369.136C1299.96 383.449 1252.19 394.564 1197.54 403.118C1166.95 407.904 1135.63 411.314 1104.44 413.249C1078.13 414.862 1051.86 415.439 1026.36 414.957C988.434 414.248 951.36 411.06 916.164 405.484C879.201 399.627 843.931 391.068 811.339 380.046C782.784 370.391 755.213 358.411 727.048 343.424C675.897 316.244 632.079 286.112 599.623 262.896C587.609 254.302 575.786 245.655 564.35 237.29C518.809 203.98 475.794 172.513 423.501 146.005C384.42 126.193 340.543 109.44 293.097 96.2147C257.198 86.2073 219.147 78.7095 176.777 73.292C166.998 72.0438 157.05 70.919 147.213 69.9482C104.003 65.7062 57.8863 64.1014 2.09093 62.4416C-38.1286 61.1846 -90.7786 60.3569 -141.359 65.1602C-165.314 67.3924 -188.469 71.269 -210.189 76.6777C-286.657 95.726 -338.53 129.002 -348.953 165.694L-349.498 165.639C-346.736 155.909 -341.138 146.366 -332.869 137.272C-324.987 128.608 -314.63 120.3 -302.089 112.573C-278.256 97.8943 -246.552 85.3752 -210.402 76.3717C-188.642 70.952 -165.443 67.0688 -141.447 64.8322C-90.8191 60.0223 -38.1286 60.8522 2.1167 62.1092C57.9305 63.769 104.061 65.3738 147.301 69.618C157.146 70.591 167.101 71.7158 176.891 72.964C219.302 78.3881 257.389 85.8925 293.329 95.9109C340.823 109.15 384.736 125.915 423.858 145.747C476.188 172.276 519.221 203.751 564.778 237.075C576.21 245.438 588.033 254.084 600.047 262.676C632.495 285.883 676.295 316.004 727.416 343.171C755.548 358.142 783.09 370.109 811.612 379.753C875.698 401.425 947.961 413.156 1026.38 414.622C1051.85 415.102 1078.1 414.528 1104.39 412.914C1135.54 410.981 1166.84 407.576 1197.4 402.792C1252 394.247 1299.73 383.141 1343.32 368.841C1366.71 361.167 1389.78 351.761 1411.89 340.877C1449.15 322.632 1482.09 300.894 1513.95 279.873C1535.43 265.699 1555.72 252.312 1577.29 239.864C1601.93 225.641 1626.26 211.867 1652.91 199.676C1677.27 188.5 1701.3 180.46 1724.33 175.776C1752.25 170.096 1778.73 169.381 1803.01 173.647C1817.58 176.207 1831.94 180.324 1846.93 186.234C1876.56 197.877 1903 214.689 1928.57 230.946C1937.1 236.368 1945.15 241.491 1953.31 246.419C1984.08 265.012 2014.66 284.963 2044.21 305.717C2104.8 348.203 2165.9 397.483 2230.99 456.375L2230.53 456.56Z" fill="#FFE492"/>
<path d="M2228.3 440.57C2167.39 379.912 2107.23 329.736 2044.36 287.178C2013.96 266.558 1982.12 247.219 1949.72 229.694C1942.79 225.947 1935.66 221.972 1928.77 218.128C1900.29 202.248 1870.85 185.828 1838.71 175.506C1823.62 170.627 1809.25 167.391 1794.81 165.615C1739.35 158.793 1686.07 179.217 1651.15 197.55C1627.48 209.926 1605.84 223.953 1584.91 237.52L1580.99 240.06C1561.99 252.368 1544.17 265.867 1525.3 280.16C1495.25 302.92 1464.18 326.452 1426.9 345.802C1405.21 357.143 1381.93 366.633 1357.7 374.008C1315.46 386.866 1268.45 396.041 1209.77 402.883C1179.42 406.42 1148.12 408.631 1116.71 409.45C1090.46 410.108 1064.36 409.778 1039.11 408.463C962.689 404.503 891.281 390.762 826.871 367.624C799.027 357.621 771.437 345.326 742.528 330.031C693.605 304.203 650.093 277.655 609.723 252.676C604.308 249.328 598.953 246.002 593.639 242.702C538.499 208.473 486.42 176.142 425.214 151.258C385.256 135.012 341.423 121.764 294.939 111.88C260.811 104.624 223.825 99.6976 181.875 96.8183C172.42 96.1733 162.803 95.6428 153.29 95.2421C129.357 94.2515 103.973 94.0908 77.0976 93.9213C55.5109 93.7848 33.1913 93.6439 9.63781 93.0694C-35.8522 91.8653 -87.4083 90.5026 -134.714 93.3556C-159.122 94.8283 -182.418 97.8133 -203.957 102.229C-280.396 117.903 -335.075 146.765 -350.224 179.435L-350.846 179.331C-346.854 170.718 -340.18 162.315 -331.013 154.357C-322.247 146.747 -311.153 139.496 -298.042 132.806C-272.963 120.012 -240.5 109.313 -204.17 101.864C-182.583 97.4369 -159.24 94.4452 -134.784 92.9703C-87.4304 90.1152 -35.8486 91.48 9.65991 92.6842C33.1986 93.2565 55.5183 93.3996 77.0976 93.5361C103.984 93.7056 129.376 93.8663 153.331 94.8591C162.851 95.2619 172.479 95.7925 181.941 96.4375C223.943 99.319 260.973 104.252 295.148 111.519C341.688 121.414 385.569 134.677 425.571 150.941C486.832 175.847 538.937 208.193 594.099 242.438C599.414 245.737 604.773 249.061 610.183 252.412C650.546 277.386 694.044 303.928 742.952 329.747C771.831 345.025 799.392 357.308 827.203 367.298C891.528 390.408 962.844 404.129 1039.17 408.085C1064.38 409.397 1090.46 409.727 1116.68 409.069C1148.05 408.25 1179.33 406.042 1209.64 402.509C1268.27 395.674 1315.22 386.509 1357.41 373.669C1381.58 366.31 1404.82 356.837 1426.47 345.516C1463.7 326.19 1494.75 302.671 1524.79 279.924C1543.67 265.624 1561.5 252.119 1580.52 239.803L1584.43 237.262C1605.37 223.689 1627.02 209.653 1650.72 197.264C1685.75 178.871 1739.21 158.388 1794.93 165.241C1809.45 167.026 1823.86 170.273 1839.01 175.171C1871.22 185.515 1900.7 201.953 1929.2 217.851C1936.09 221.694 1943.22 225.67 1950.14 229.414C1982.56 246.948 2014.42 266.298 2044.83 286.929C2107.73 329.505 2167.92 379.698 2228.85 440.376L2228.3 440.57Z" fill="#FFE492"/>
<path d="M2226.08 424.577C2170.16 363.003 2109.21 310.463 2044.94 268.422C2013.69 247.932 1980.58 229.196 1946.54 212.735C1941.62 210.357 1936.58 207.889 1931.71 205.503C1899.53 189.739 1866.25 173.436 1830.81 164.499C1815.6 160.622 1801.2 158.256 1786.78 157.261C1731.47 153.448 1681.37 175.763 1649.07 195.155C1629.01 207.134 1610.91 220.457 1593.41 233.341C1590.38 235.571 1587.35 237.797 1584.32 240.014C1567.67 252.192 1552.1 265.796 1535.62 280.197C1507.6 304.681 1478.62 329.996 1441.57 350.469C1419.81 362.49 1397 371.784 1371.82 378.886C1319.16 393.738 1266.53 399.235 1222 402.656C1191.88 404.967 1160.59 405.98 1128.99 405.659C1102.82 405.361 1076.87 404.122 1051.87 401.978C977.739 395.636 907.266 379.901 842.41 355.208C815.424 344.937 787.819 332.323 758.012 316.647C727.902 300.85 699.844 285.65 672.707 270.949C654.266 260.957 636.845 251.52 619.833 242.466C555.526 208.239 496.622 178.147 426.941 156.517C386.125 143.848 342.336 134.1 296.791 127.547C264.148 122.849 229.254 120.562 186.983 120.344C177.864 120.304 168.575 120.368 159.378 120.535C145.408 120.806 130.956 121.372 115.66 121.973C86.3053 123.124 53.0284 124.43 17.1845 123.699C3.53486 123.419 -10.391 123.025 -23.8601 122.642C-58.5034 121.658 -94.3253 120.641 -128.074 121.55C-152.857 122.22 -176.296 124.315 -197.732 127.78C-274.042 140.119 -331.525 164.569 -351.502 193.184L-352.183 193.015C-346.953 185.522 -339.204 178.261 -329.153 171.435C-319.499 164.879 -307.669 158.687 -293.998 153.032C-267.652 142.135 -234.434 133.257 -197.931 127.355C-176.444 123.882 -152.953 121.779 -128.114 121.11C-94.329 120.199 -58.4923 121.218 -23.8306 122.202C-10.3652 122.585 3.56064 122.979 17.2066 123.259C53.0174 123.989 86.2685 122.686 115.608 121.535C130.911 120.934 145.368 120.368 159.352 120.097C168.56 119.93 177.856 119.866 186.987 119.906C229.317 120.122 264.262 122.415 296.961 127.12C342.561 133.682 386.409 143.441 427.276 156.127C458.752 165.897 490.648 178.275 524.787 193.966C555.349 208.013 585.079 223.383 620.319 242.138C637.331 251.194 654.752 260.632 673.197 270.623C700.331 285.322 728.389 300.522 758.491 316.317C788.268 331.977 815.844 344.578 842.797 354.838C907.564 379.498 977.937 395.211 1051.96 401.544C1076.94 403.686 1102.85 404.923 1128.99 405.221C1160.55 405.542 1191.81 404.532 1221.9 402.22C1266.37 398.806 1318.93 393.316 1371.5 378.49C1396.61 371.408 1419.36 362.138 1441.06 350.147C1478.05 329.71 1507 304.414 1535 279.951C1551.5 265.541 1567.07 251.93 1583.74 239.739C1586.77 237.522 1589.8 235.296 1592.82 233.068C1610.34 220.175 1628.46 206.844 1648.54 194.849C1669.55 182.233 1691.1 172.527 1712.61 166.002C1738.08 158.273 1763.05 155.187 1786.85 156.829C1801.34 157.829 1815.81 160.206 1831.08 164.098C1866.62 173.06 1899.94 189.383 1932.16 205.166C1937.03 207.553 1942.07 210.02 1946.98 212.396C1981.05 228.87 2014.19 247.624 2045.46 268.129C2079.59 290.453 2113.01 315.888 2144.8 343.726C2172.89 368.33 2200.45 395.464 2226.71 424.37L2226.08 424.577Z" fill="#FFE492"/>
<path d="M2223.85 408.579C2172.1 345.24 2112.09 291.774 2045.52 249.664C2013.41 229.304 1979.04 211.173 1943.36 195.773C1941.66 195.04 1939.96 194.307 1938.26 193.571C1901.15 177.537 1862.78 160.956 1822.93 153.491C1807.49 150.599 1793.04 149.1 1778.76 148.906C1723.68 148.162 1676.7 172.341 1647 192.755C1629.52 204.697 1614 217.786 1599 230.444C1595.29 233.574 1591.45 236.81 1587.66 239.963C1573.24 251.969 1559.83 265.619 1545.63 280.073C1519.81 306.364 1493.11 333.549 1456.25 355.131C1434.93 367.617 1411.93 376.981 1385.94 383.761C1334.75 397.117 1282.77 400.624 1234.23 402.424C1204.3 403.534 1173.02 403.344 1141.26 401.863C1115.17 400.608 1089.39 398.462 1064.62 395.486C993.016 386.9 923.479 369.171 857.953 342.788C831.711 332.223 804.876 319.662 773.507 303.258C713.888 272.166 669.617 250.267 629.965 232.253C551.099 196.426 490.906 175.349 428.702 161.775C387.057 152.688 343.312 146.443 298.677 143.211C267.709 140.97 234.845 141.17 192.121 143.867C183.366 144.426 174.409 145.084 165.496 145.826C157.076 146.537 148.524 147.352 139.467 148.213C106.028 151.393 68.1255 154.999 24.7459 154.326C1.88115 153.971 -21.4734 153 -44.0582 152.063C-69.7258 150.997 -96.2663 149.894 -121.429 149.745C-146.659 149.595 -170.241 150.801 -191.504 153.333C-267.56 162.383 -327.853 182.426 -352.784 206.947L-353.491 206.689C-347.016 200.318 -338.191 194.201 -327.263 188.506C-316.715 183.007 -304.155 177.876 -289.931 173.251C-262.301 164.265 -228.32 157.207 -191.666 152.846C-170.345 150.31 -146.71 149.1 -121.422 149.249C-96.2368 149.399 -69.6816 150.502 -44.003 151.57C-21.4256 152.507 1.91796 153.478 24.7643 153.833C68.0665 154.504 105.929 150.903 139.331 147.726C148.391 146.863 156.951 146.051 165.374 145.338C174.298 144.596 183.263 143.937 192.025 143.376C234.815 140.677 267.735 140.475 298.769 142.722C343.467 145.958 387.274 152.212 428.978 161.313C491.266 174.904 551.522 196.004 630.458 231.862C670.125 249.882 714.411 271.787 774.044 302.888C805.391 319.279 832.197 331.827 858.41 342.38C923.847 368.726 993.281 386.432 1064.78 395.004C1089.52 397.975 1115.27 400.117 1141.32 401.372C1173.04 402.851 1204.28 403.041 1234.17 401.933C1282.64 400.135 1334.54 396.637 1385.61 383.312C1411.5 376.558 1434.41 367.225 1455.67 354.783C1492.45 333.247 1519.12 306.091 1544.91 279.829C1559.12 265.366 1572.53 251.705 1586.98 239.681C1590.77 236.531 1594.61 233.295 1598.32 230.164C1613.33 217.496 1628.86 204.398 1646.37 192.435C1665.75 179.113 1686.08 168.575 1706.77 161.112C1731.01 152.371 1755.25 148.102 1778.78 148.417C1793.14 148.611 1807.66 150.119 1823.17 153.025C1863.16 160.516 1901.58 177.118 1938.74 193.177C1940.44 193.913 1942.15 194.648 1943.84 195.379C1979.57 210.797 2013.98 228.949 2046.12 249.331C2112.75 291.479 2172.8 344.987 2224.6 408.37L2223.85 408.579Z" fill="#FFE492"/>
<path d="M1252.56 402.196C1250.49 402.196 1248.45 402.194 1246.45 402.187C1216.67 402.112 1185.4 400.725 1153.52 398.062C1127.53 395.85 1101.91 392.796 1077.37 388.99C1042.31 383.562 1007.12 375.76 972.774 365.803C939.607 356.188 906.205 344.265 873.492 330.364C841.438 316.744 811.498 301.568 788.994 289.868C736.34 262.567 686.243 239.747 640.093 222.042C565.348 193.367 498.739 175.886 430.466 167.03C389.278 161.688 345.088 158.87 302.54 158.87C301.881 158.87 301.226 158.87 300.566 158.872C264.015 158.947 229.313 163.006 197.262 167.382C188.92 168.529 180.291 169.782 171.613 171.109C166.858 171.845 162.096 172.602 157.058 173.403C121.519 179.063 81.2373 185.475 32.2999 184.949C2.49616 184.628 -27.9447 182.783 -57.3838 180.998C-76.3923 179.844 -96.0454 178.653 -114.792 177.934C-140.563 176.945 -164.279 177.262 -185.287 178.88C-260.938 184.7 -324.041 200.339 -354.091 220.715L-354.784 220.351C-339.37 209.902 -316.185 200.854 -285.873 193.457C-256.923 186.396 -222.181 181.165 -185.405 178.336C-164.341 176.716 -140.563 176.395 -114.733 177.388C-95.968 178.107 -76.3039 179.301 -57.288 180.454C-27.8674 182.239 2.55507 184.084 32.3182 184.403C81.1304 184.929 121.343 178.526 156.822 172.877C161.864 172.074 166.626 171.316 171.385 170.581C180.07 169.254 188.707 167.999 197.056 166.852C229.162 162.469 263.923 158.403 300.563 158.326C343.787 158.236 388.769 161.062 430.661 166.498C465.897 171.07 500.058 177.799 535.088 187.071C568.825 196.002 603.336 207.291 640.587 221.584C686.773 239.303 736.908 262.14 789.594 289.458C812.08 301.152 841.998 316.317 874.018 329.921C940.399 358.129 1008.89 377.825 1077.6 388.464C1102.11 392.266 1127.69 395.315 1153.64 397.525C1185.49 400.184 1216.71 401.571 1246.45 401.643C1292.98 401.758 1347.01 400.82 1399.71 388.129C1426.38 381.706 1449.46 372.313 1470.26 359.415C1506.78 336.763 1531 307.69 1554.42 279.572C1566.46 265.109 1577.84 251.448 1590.21 239.622C1594.18 235.833 1598.18 231.93 1602.04 228.155C1615.11 215.4 1628.62 202.214 1644.19 190.026C1661.97 176.003 1681.06 164.629 1700.92 156.219C1723.94 146.47 1747.41 141.015 1770.68 140.006C1785.04 139.384 1799.61 140.02 1815.24 141.952C1857.01 147.117 1898.41 162.121 1940.68 178.361C1977.53 192.52 2014.21 210.56 2046.75 230.533C2082.89 252.654 2116.85 278.606 2147.68 307.666C2175.15 333.556 2200.31 362.054 2222.47 392.371L2221.62 392.591C2174.05 327.484 2114.99 273.089 2046.09 230.918C2013.6 210.974 1976.98 192.96 1940.18 178.825C1897.98 162.614 1856.66 147.639 1815.05 142.492C1799.51 140.57 1785.02 139.938 1770.74 140.557C1727.99 142.413 1683.31 160.098 1644.92 190.36C1629.38 202.527 1615.88 215.702 1602.83 228.443C1598.96 232.221 1594.96 236.126 1590.99 239.915C1578.64 251.718 1567.27 265.369 1555.24 279.819C1543.75 293.614 1531.87 307.881 1518.23 321.596C1502.78 337.144 1487.3 349.639 1470.92 359.798C1450.03 372.753 1426.86 382.188 1400.06 388.642C1376.42 394.335 1351.02 398.097 1322.4 400.149C1298.16 401.877 1273.82 402.196 1252.56 402.196Z" fill="#FFE492"/>
<path d="M1311.62 403.299C1292.84 403.299 1274.8 402.629 1258.66 401.951C1228.99 400.705 1197.73 398.119 1165.77 394.262C1139.89 391.094 1114.43 387.136 1090.1 382.494C1023.48 369.807 957.702 348.69 889.016 317.939C859.062 304.531 830.823 290.103 804.474 276.477C752.454 249.653 700.559 227.904 650.222 211.83C576.192 188.189 506.927 175.622 432.241 172.28C389.687 170.376 344.812 171.153 302.463 174.525C267.017 177.348 233.6 184.159 202.404 190.89C194.6 192.583 186.298 194.432 177.735 196.385C175.595 196.876 173.437 197.375 171.249 197.88C135.32 206.183 94.666 215.578 42.4912 215.578C41.6109 215.578 40.7343 215.576 39.8467 215.57C4.54782 215.356 -31.4914 212.345 -66.3483 209.43C-80.1673 208.274 -94.4578 207.081 -108.17 206.115C-134.954 204.231 -158.15 203.674 -179.088 204.418C-255.244 207.125 -319.525 218.079 -355.443 234.477L-356.058 233.995C-338.301 225.89 -312.627 218.852 -281.817 213.643C-251.513 208.521 -216.011 205.122 -179.151 203.812C-158.153 203.066 -134.898 203.623 -108.056 205.512C-94.3288 206.478 -80.0347 207.673 -66.212 208.827C-31.3883 211.737 4.6178 214.746 39.8504 214.96C93.1118 215.286 134.429 205.734 170.877 197.309C173.061 196.805 175.223 196.306 177.363 195.813C185.933 193.858 194.239 192.009 202.051 190.316C233.298 183.571 266.778 176.751 302.32 173.92C344.734 170.543 389.683 169.764 432.307 171.67C469.319 173.326 504.607 177.235 540.186 183.619C576.829 190.195 612.975 199.244 650.69 211.29C701.089 227.386 753.051 249.162 805.126 276.012C831.464 289.634 859.684 304.053 889.613 317.448C958.207 348.157 1023.88 369.244 1090.4 381.91C1114.69 386.544 1140.12 390.498 1165.96 393.661C1197.88 397.513 1229.09 400.098 1258.72 401.339C1308.58 403.431 1361.63 404.505 1413.81 392.932C1441.26 386.841 1464.5 377.389 1484.84 364.033C1521.07 340.243 1543.63 307.793 1563.53 279.162C1573.54 264.757 1582.99 251.15 1593.43 239.551C1597.19 235.366 1600.98 231.041 1604.65 226.858C1616.11 213.771 1627.96 200.239 1641.99 187.601C1658.22 172.879 1676.08 160.668 1695.06 151.308C1716.86 140.559 1739.58 133.919 1762.56 131.579C1776.93 130.115 1791.56 129.882 1807.28 130.86C1851.2 133.596 1895.82 147.116 1937.5 161.322C1975.99 174.437 2013.98 191.863 2047.38 211.715C2084.53 233.733 2118.76 259.944 2149.11 289.616C2176.26 316.151 2200.22 345.333 2220.33 376.354L2219.39 376.572C2176.64 310.633 2116.91 253.774 2046.66 212.142C2013.33 192.328 1975.41 174.935 1937 161.846C1895.42 147.673 1850.92 134.186 1807.18 131.46C1791.55 130.487 1777.02 130.721 1762.74 132.174C1720.3 136.495 1677.72 156.296 1642.84 187.932C1628.84 200.543 1617 214.062 1605.55 227.136C1601.89 231.32 1598.1 235.646 1594.33 239.835C1583.92 251.408 1574.47 265.001 1564.46 279.391C1544.53 308.066 1521.94 340.569 1485.59 364.438C1465.14 377.866 1441.77 387.372 1414.16 393.498C1390.2 398.812 1364.35 401.89 1335.13 402.9C1327.23 403.186 1319.37 403.299 1311.62 403.299Z" fill="#FFE492"/>
<path d="M1348.69 405.683C1348.42 405.683 1348.16 405.683 1347.89 405.683C1321.35 405.643 1295.29 403.701 1270.87 401.716C1241.24 399.308 1210 395.519 1178.02 390.46C1152.26 386.342 1126.97 381.474 1102.84 375.998C1038.88 361.497 975.875 339.103 904.551 305.517C878.865 293.425 853.588 280.404 829.14 267.814C826.083 266.238 823.022 264.664 819.962 263.09C767.672 236.273 713.976 215.592 660.369 201.622C586.961 182.494 512.927 174.614 434.035 177.53C390.776 179.131 345.942 183.505 304.378 190.179C271.584 195.447 242.362 203.898 207.564 214.399C200.511 216.536 192.979 218.843 183.867 221.661L183.359 221.819C165.779 227.292 145.854 233.493 123.504 238.208C97.8369 243.624 72.9354 246.23 47.4004 246.199C7.58236 246.14 -33.0534 241.711 -72.3484 237.425C-81.9761 236.375 -91.9352 235.289 -101.548 234.308C-129.116 231.497 -152.452 230.077 -172.89 229.969C-248.143 229.573 -315.183 236.238 -356.817 248.253L-357.296 247.659C-336.902 241.772 -309.393 236.995 -277.744 233.843C-246.036 230.684 -209.772 229.117 -172.879 229.311C-152.382 229.418 -128.987 230.841 -101.36 233.658C-91.74 234.64 -81.7809 235.725 -72.1495 236.775C-32.9024 241.055 7.68181 245.479 47.4041 245.539C47.5809 245.539 47.7614 245.539 47.9381 245.539C104.757 245.539 148.045 232.067 182.85 221.234L183.362 221.075C192.478 218.255 200.01 215.948 207.067 213.811C241.924 203.293 271.197 194.826 304.095 189.543C345.728 182.856 390.636 178.475 433.968 176.872C472.575 175.446 508.989 176.533 545.301 180.201C584.431 184.152 622.216 190.961 660.811 201.019C714.522 215.015 768.31 235.73 820.683 262.591C823.744 264.165 826.805 265.741 829.862 267.317C854.299 279.902 879.569 292.919 905.233 305.002C976.464 338.546 1039.38 360.909 1103.23 375.386C1127.32 380.856 1152.58 385.714 1178.31 389.829C1210.24 394.881 1241.43 398.663 1271.02 401.066C1324.01 405.377 1375.88 408.366 1427.92 397.764C1456.17 392.01 1479.56 382.498 1499.44 368.682C1535.35 343.726 1554.97 309.145 1572.28 278.632C1580.38 264.347 1588.03 250.853 1596.67 239.514C1599.99 235.151 1603.32 230.638 1606.54 226.273C1616.62 212.624 1627.04 198.514 1639.82 185.209C1654.52 169.779 1671.15 156.73 1689.22 146.423C1709.81 134.677 1731.77 126.858 1754.46 123.186C1768.53 120.91 1782.89 119.8 1798.33 119.8C1798.66 119.8 1799 119.8 1799.34 119.802C1847.31 119.952 1896.68 132.98 1934.34 144.312C1974.45 156.386 2013.76 173.196 2048.02 192.924C2086.18 214.841 2120.68 241.31 2150.56 271.599C2177.37 298.779 2200.14 328.644 2218.22 360.37L2217.17 360.584C2190.27 313.378 2138.94 246.056 2047.25 193.402C2013.08 173.718 1973.86 156.948 1933.84 144.902C1896.3 133.6 1847.08 120.61 1799.33 120.463C1783.61 120.408 1769.04 121.513 1754.75 123.824C1712.7 130.628 1672.22 152.545 1640.77 185.537C1628.03 198.811 1617.62 212.906 1607.55 226.539C1604.33 230.907 1600.99 235.422 1597.67 239.787C1589.06 251.097 1581.41 264.574 1573.32 278.843C1555.98 309.411 1536.33 344.058 1500.28 369.112C1480.27 383.02 1456.72 392.596 1428.28 398.387C1404.18 403.294 1378.14 405.683 1348.69 405.683Z" fill="#FFE492"/>
<path d="M1378.17 408.782C1372.45 408.782 1366.61 408.672 1360.63 408.452C1334.45 407.49 1309 404.604 1283.08 401.478C1253.02 397.854 1222.66 393.007 1190.27 386.658C1164.65 381.591 1139.52 375.819 1115.58 369.499C1054.86 353.49 994.563 329.925 920.087 293.092C901.591 283.945 883.101 274.352 865.22 265.073C855.485 260.023 845.423 254.8 835.453 249.699C782.542 222.702 727.052 203.092 670.523 191.412C595.834 175.978 519.07 173.152 435.84 182.771C391.867 187.854 347.073 195.825 306.305 205.822C273.555 213.852 245.025 225.13 214.82 237.07L212.732 237.895C208.014 239.767 203.244 241.664 198.416 243.584C195.635 244.691 192.836 245.805 190.011 246.928C172.398 253.965 153.375 261.307 131.56 266.958C106.231 273.518 81.1786 276.745 54.9622 276.824C11.3174 276.952 -33.2003 270.889 -76.2484 265.02C-82.3918 264.182 -88.7489 263.317 -94.9181 262.496C-123.842 258.643 -146.644 256.426 -166.687 255.515C-240.651 252.154 -310.453 254.522 -358.201 262.016L-358.507 261.324C-310.634 253.811 -240.688 251.434 -166.595 254.802C-146.496 255.715 -123.635 257.939 -94.6566 261.798C-88.4837 262.621 -82.1267 263.486 -75.9795 264.325C-33.4581 270.121 10.4961 276.111 53.5627 276.111C54.0268 276.111 54.4908 276.111 54.9586 276.109C110.662 275.941 150.314 261.928 189.351 246.333C192.176 245.211 194.976 244.097 197.756 242.989C202.585 241.068 207.351 239.172 212.073 237.299L214.161 236.473C244.418 224.513 272.995 213.216 305.852 205.159C346.694 195.143 391.565 187.159 435.615 182.067C519.056 172.423 596.025 175.258 670.918 190.734C727.586 202.445 783.204 222.099 836.234 249.155C846.204 254.258 856.27 259.48 866.004 264.532C883.878 273.808 902.364 283.4 920.85 292.54C995.237 329.331 1055.44 352.863 1116.06 368.845C1139.96 375.154 1165.06 380.919 1190.65 385.978C1222.99 392.318 1253.3 397.159 1283.32 400.775C1328.88 406.268 1385.58 413.105 1442.04 402.574C1471.07 397.161 1494.62 387.589 1514.04 373.311C1549.6 347.159 1566.09 310.377 1580.64 277.927C1586.96 263.83 1592.93 250.514 1599.9 239.463C1602.61 235.157 1605.34 230.704 1607.97 226.396C1616.79 211.948 1625.92 197.01 1637.64 182.802C1650.86 166.655 1666.24 152.767 1683.36 141.523C1702.77 128.781 1723.96 119.784 1746.35 114.781C1760.72 111.569 1775.45 109.59 1791.38 108.729C1812.71 107.576 1835.42 108.808 1860.8 112.489C1882.27 115.606 1905.29 120.445 1931.17 127.284C1972.92 138.315 2013.54 154.511 2048.66 174.118C2087.84 195.931 2122.61 222.662 2152 253.565C2178.47 281.392 2200.04 311.942 2216.09 344.37L2214.95 344.573C2181.04 276.111 2121.69 215.761 2047.84 174.642C2012.82 155.087 1972.31 138.938 1930.69 127.94C1874.92 113.204 1830.69 107.325 1791.49 109.442C1775.67 110.296 1761.04 112.262 1746.77 115.45C1693.49 127.353 1658.6 158.819 1638.71 183.117C1627.02 197.289 1617.9 212.21 1609.09 226.64C1606.46 230.95 1603.73 235.406 1601.02 239.714C1594.07 250.732 1588.11 264.032 1581.8 278.112C1567.22 310.632 1550.69 347.492 1514.96 373.763C1495.4 388.153 1471.66 397.801 1442.4 403.259C1422.56 406.957 1401.41 408.782 1378.17 408.782Z" fill="#FFE492"/>
<path d="M1403.7 412.335C1364.76 412.335 1327.31 406.354 1295.27 401.238C1265.13 396.426 1234.79 390.412 1202.51 382.855C1177.03 376.845 1152.06 370.166 1128.31 363.001C1057.09 341.546 993.609 310.752 935.615 280.668C923.774 274.526 911.811 268.195 900.246 262.073C884.187 253.572 867.58 244.782 850.94 236.311C797.237 209.047 739.953 190.505 680.685 181.2C604.014 169.165 524.514 171.391 437.644 188.007C392.916 196.561 348.167 208.129 308.231 221.461C277.429 231.741 251.367 244.72 223.777 258.461C221.821 259.434 219.862 260.411 217.892 261.389L216.823 261.921C210.116 265.265 203.181 268.721 196.15 272.191C179.304 280.54 160.752 289.176 139.294 295.774C114.385 303.432 89.2737 307.251 62.5159 307.45C15.549 307.8 -32.3204 299.908 -78.6096 292.276C-81.8545 291.741 -85.0845 291.208 -88.2999 290.682C-118.825 285.676 -141.094 282.709 -160.496 281.058C-232.604 274.925 -305.176 272.996 -359.605 275.768L-359.715 274.999C-305.198 272.221 -232.519 274.152 -160.316 280.294C-140.858 281.949 -118.542 284.923 -87.961 289.938C-84.7457 290.464 -81.5156 290.997 -78.2671 291.534C-32.0662 299.15 15.7111 307.023 62.4976 306.679C120.606 306.248 161.529 288.344 195.325 271.596C202.356 268.127 209.291 264.671 215.998 261.329L217.066 260.796C219.037 259.817 220.996 258.842 222.952 257.869C250.59 244.104 276.696 231.102 307.601 220.787C347.61 207.431 392.445 195.843 437.25 187.274C478.434 179.397 517.118 174.849 555.507 173.37C598.331 171.721 640.554 174.105 681.009 180.456C740.465 189.79 797.918 208.384 851.773 235.723C868.424 244.198 885.035 252.99 901.097 261.494C912.662 267.616 924.617 273.945 936.454 280.085C994.39 310.135 1057.8 340.897 1128.88 362.312C1152.6 369.466 1177.54 376.136 1202.98 382.137C1235.21 389.683 1265.51 395.688 1295.6 400.494C1341.81 407.873 1399.32 417.057 1456.14 407.393C1485.96 402.321 1509.66 392.69 1528.61 377.95C1563.81 350.567 1576.98 311.522 1588.6 277.071C1593.27 263.229 1597.68 250.155 1603.12 239.419C1605.13 235.448 1607.14 231.345 1609.1 227.376C1616.74 211.852 1624.64 195.797 1635.44 180.403C1647.19 163.525 1661.34 148.794 1677.48 136.623C1695.7 122.889 1716.13 112.714 1738.22 106.381C1752.56 102.268 1767.34 99.4177 1783.4 97.6633C1805.05 95.3012 1829.06 95.3805 1854.78 97.8988C1877.3 100.105 1901.93 104.263 1927.98 110.262C1971.35 120.249 2013.3 135.828 2049.28 155.314C2089.47 177.026 2124.51 204.015 2153.43 235.534C2179.55 264.008 2199.91 295.245 2213.96 328.376L2212.71 328.565C2182.95 258.364 2124.61 197.039 2048.41 155.887C2012.55 136.464 1970.74 120.936 1927.52 110.981C1871.49 98.0793 1824.42 93.9694 1783.64 98.4227C1767.69 100.164 1753.01 102.995 1738.77 107.076C1686.23 122.144 1654.23 155.429 1636.63 180.7C1625.85 196.055 1617.96 212.087 1610.33 227.591C1608.38 231.56 1606.36 235.666 1604.35 239.641C1598.93 250.342 1594.53 263.398 1589.86 277.223C1584.27 293.797 1577.94 312.581 1568.74 330.192C1558.2 350.369 1545.41 366.144 1529.64 378.419C1520.51 385.516 1510.03 391.556 1498.48 396.373C1486.05 401.553 1471.93 405.511 1456.49 408.135C1438.84 411.14 1421.12 412.335 1403.7 412.335Z" fill="#FFE492"/>
<path d="M1426.72 416.233C1413.85 416.233 1400.36 415.485 1386.11 413.99C1358.04 411.047 1331.18 405.706 1307.47 400.998C1277.59 395.061 1246.4 387.675 1214.76 379.048C1189.44 372.105 1164.63 364.519 1141.04 356.497C1073.32 333.5 1014.97 302.921 951.143 268.241C945.471 265.159 939.71 262.015 934.141 258.973C912.209 247 889.532 234.62 866.428 222.922C811.833 195.339 752.76 177.867 690.847 170.99C612.75 162.314 528.164 169.799 439.449 193.239C393.925 205.267 349.216 220.43 310.157 237.092C280.747 249.637 256.538 264.428 230.908 280.089C228.304 281.68 225.689 283.276 223.059 284.879C216.514 288.872 209.464 293.158 202.293 297.448C187.255 306.476 168.928 316.763 147.032 324.584C122.521 333.341 97.347 337.755 70.0773 338.074C20.1565 338.662 -30.6594 328.782 -79.8031 319.229L-81.6741 318.865C-105.736 314.19 -131.19 309.466 -154.298 306.597C-224.733 297.856 -298.141 291.787 -360.994 289.508L-360.909 288.685C-297.99 290.965 -224.516 297.039 -154.018 305.789C-130.844 308.666 -105.345 313.397 -81.2468 318.079L-79.3758 318.443C-30.3389 327.974 20.3738 337.83 70.0515 337.247C127.423 336.573 167.046 317.439 201.317 296.861C208.488 292.572 215.531 288.286 222.075 284.295C224.705 282.695 227.32 281.097 229.924 279.507C255.599 263.821 279.852 249.003 309.358 236.416C348.491 219.721 393.285 204.529 438.893 192.479C480.515 181.484 521.475 173.906 560.627 169.962C605.362 165.455 649.261 165.526 691.104 170.173C753.253 177.076 812.544 194.61 867.323 222.288C890.445 233.997 913.133 246.382 935.077 258.361C940.646 261.401 946.406 264.545 952.078 267.627C1015.84 302.274 1074.13 332.82 1141.73 355.778C1165.29 363.786 1190.05 371.361 1215.34 378.295C1246.94 386.909 1278.08 394.284 1307.91 400.212C1354.68 409.506 1412.88 421.07 1470.27 412.209C1500.88 407.483 1524.74 397.795 1543.21 382.588C1578.02 353.937 1588.1 310.753 1596.19 276.053C1599.34 262.537 1602.32 249.772 1606.36 239.381C1607.63 236.106 1608.91 232.731 1610.15 229.466C1616.6 212.507 1623.27 194.969 1633.27 178.01C1648.71 151.618 1678.05 116.313 1730.11 97.9908C1744.48 92.9321 1759.32 89.2074 1775.45 86.6054C1817.66 79.6998 1867.91 81.9341 1924.81 93.2425C1969.81 102.187 2013.07 117.149 2049.92 136.514C2091.13 158.123 2126.45 185.371 2154.88 217.509C2167.92 232.249 2179.44 247.993 2189.14 264.303C2198.4 279.882 2206.04 296.059 2211.84 312.387L2210.49 312.558C2184.91 240.614 2127.56 178.314 2049.01 137.133C2012.3 117.84 1969.2 102.935 1924.37 94.0239C1867.74 82.7662 1817.75 80.5385 1775.81 87.4001C1759.79 89.9823 1745.08 93.6783 1730.81 98.6996C1679.11 116.894 1649.94 152.018 1634.57 178.281C1624.6 195.196 1617.94 212.71 1611.5 229.647C1610.26 232.911 1608.98 236.288 1607.7 239.566C1603.68 249.921 1600.7 262.669 1597.56 276.166C1593.48 293.627 1588.87 313.417 1580.98 332.095C1571.92 353.559 1559.93 370.234 1544.33 383.072C1535.43 390.396 1525.02 396.573 1513.4 401.429C1500.88 406.662 1486.48 410.558 1470.61 413.006C1456.69 415.159 1442.14 416.233 1426.72 416.233Z" fill="#FFE492"/>
<path d="M1447.94 420.35C1432.51 420.35 1416.23 419.155 1398.85 416.758C1370.68 412.877 1343.58 406.436 1319.67 400.752C1289.56 393.597 1258.39 385.014 1227 375.238C1201.84 367.368 1177.2 358.875 1153.76 349.993C1089.27 325.569 1033.95 294.09 975.377 260.766C972.478 259.117 969.58 257.466 966.674 255.815C939.437 240.335 911.276 224.327 881.918 209.534C826.373 181.601 765.51 165.196 701.019 160.776C620.013 155.222 532.616 167.904 441.253 198.465C395.553 213.751 349.68 233.02 312.083 252.72C283.693 267.594 260.924 284.331 236.819 302.052C233.964 304.15 231.102 306.254 228.218 308.363C222.458 312.583 215.604 317.587 208.429 322.705C195.141 332.208 177.034 344.285 154.766 353.37C130.646 363.212 105.416 368.229 77.6347 368.702C54.7995 369.043 29.5996 366.937 0.591488 362.259C-24.3137 358.244 -48.4049 352.996 -75.0632 347.052C-99.3975 341.56 -125.08 335.887 -148.121 332.14C-216.373 321.041 -288.466 311.322 -362.393 303.247L-362.128 302.382C-288.157 310.459 -216.023 320.187 -147.735 331.29C-124.63 335.048 -98.9113 340.73 -74.5475 346.226C-29.8641 356.192 25.7471 368.599 77.5942 367.822C136.87 366.809 174.964 345.267 207.298 322.137C214.469 317.023 221.32 312.022 227.077 307.804C229.961 305.695 232.822 303.591 235.673 301.495C259.82 283.746 282.629 266.98 311.111 252.057C348.785 232.318 394.746 213.012 440.535 197.697C532.174 167.043 619.873 154.328 701.188 159.902C732.366 162.04 762.991 167.004 792.205 174.655C823.552 182.864 854.056 194.375 882.869 208.862C912.26 223.671 940.439 239.688 967.69 255.179C970.596 256.832 973.499 258.481 976.397 260.129C1034.91 293.425 1090.18 324.873 1154.56 349.251C1177.96 358.12 1202.57 366.602 1227.68 374.459C1259.03 384.22 1290.16 392.792 1320.22 399.935C1367.45 411.162 1426.25 425.134 1484.38 417.031C1515.87 412.641 1539.89 402.894 1557.8 387.233C1592.3 357.321 1598.44 311.628 1603.38 274.914C1605.15 261.783 1606.82 249.38 1609.58 239.351C1610.15 237.282 1610.72 235.201 1611.29 233.11C1616.46 214.22 1621.8 194.686 1631.08 175.622C1644.34 148.202 1670.86 111.021 1721.98 89.6064C1736.24 83.6319 1751.12 79.0355 1767.48 75.5529C1790.21 70.6682 1815.53 68.3721 1842.76 68.7244C1867.61 69.0458 1894.15 71.5707 1921.63 76.2266C1968.25 84.1228 2012.83 98.469 2050.54 117.713C2092.78 139.216 2128.36 166.728 2156.31 199.482C2169.13 214.511 2180.24 230.579 2189.31 247.238C2198.01 263.194 2204.87 279.735 2209.71 296.401L2208.26 296.551C2187.17 223.926 2129.33 158.986 2049.59 118.382C2012.03 99.2219 1967.64 84.9351 1921.22 77.0697C1863.98 67.3705 1810.99 67.1328 1767.97 76.3785C1751.74 79.8346 1736.97 84.3958 1722.82 90.324C1672.05 111.591 1645.68 148.58 1632.49 175.864C1623.24 194.877 1617.9 214.383 1612.75 233.249C1612.18 235.34 1611.6 237.423 1611.03 239.492C1608.27 249.484 1606.61 261.871 1604.85 274.982C1599.89 311.802 1593.73 357.627 1559.01 387.731C1550.38 395.279 1540.05 401.597 1528.33 406.504C1515.71 411.783 1501.04 415.613 1484.72 417.889C1472.93 419.527 1460.73 420.35 1447.94 420.35Z" fill="#FFE492"/>
<path d="M1467.87 424.637C1450.29 424.637 1431.66 422.937 1411.58 419.525C1383.18 414.698 1355.91 407.158 1331.85 400.508C1301.45 392.103 1270.29 382.318 1239.23 371.43C1214.26 362.647 1189.78 353.245 1166.48 343.49C1109.11 319.478 1060.08 290.062 1008.16 258.917C999.679 253.825 990.902 248.562 982.195 243.386C951.589 225.203 925.453 210.21 897.399 196.145C840.864 167.843 778.214 152.506 711.185 150.56C626.96 148.114 536.742 165.989 443.044 203.687C396.497 222.416 350.664 245.376 313.992 268.341C286.365 285.641 264.767 304.474 241.902 324.411C239.07 326.881 236.226 329.36 233.365 331.841C228.267 336.268 221.52 342.101 214.555 347.95C185.245 372.623 146.952 398.025 85.1822 399.323C83.256 399.361 81.3223 399.378 79.3924 399.378C31.1584 399.378 -18.0847 387.969 -68.4622 375.23L-71.6076 374.428C-96.5607 368.062 -120.133 362.05 -141.951 357.674C-224.177 341.181 -303.699 327.26 -363.792 316.975L-363.361 316.075C-303.253 326.364 -223.709 340.288 -141.454 356.787C-119.576 361.174 -95.9787 367.195 -70.9925 373.568L-67.8508 374.369C-15.6281 387.575 35.3719 399.354 85.127 398.39C146.211 397.104 184.184 371.899 213.277 347.411C220.238 341.567 226.978 335.737 232.076 331.313C234.937 328.829 237.777 326.353 240.609 323.883C263.511 303.915 285.142 285.051 312.857 267.696C349.603 244.683 395.528 221.677 442.167 202.91C485.455 185.493 528.757 172.12 570.87 163.158C619.188 152.876 666.424 148.323 711.259 149.624C778.634 151.579 841.6 166.991 898.401 195.426C926.496 209.512 952.657 224.521 983.293 242.719C992.004 247.895 1000.78 253.16 1009.27 258.252C1061.13 289.366 1110.12 318.754 1167.38 342.718C1190.64 352.461 1215.08 361.848 1240.02 370.618C1271.04 381.492 1302.15 391.262 1332.51 399.654C1380.16 412.829 1439.46 429.224 1498.49 421.843C1530.75 417.808 1554.92 408.003 1572.37 391.87C1606.44 360.595 1608.49 312.33 1610.13 273.549C1610.67 260.896 1611.18 248.943 1612.8 239.312L1612.84 239.091C1616.48 217.525 1620.25 195.225 1628.89 173.223C1636.37 154.031 1646.79 136.777 1659.85 121.936C1674.58 105.203 1692.75 91.502 1713.84 81.2107C1727.96 74.3249 1742.89 68.8545 1759.49 64.4893C1804.34 52.6262 1859.3 50.7947 1918.43 59.1972C1942.22 62.5785 1965.7 67.701 1988.2 74.4196C2010.83 81.1777 2032.02 89.4174 2051.17 98.9052C2094.42 120.304 2130.28 148.077 2157.74 181.451C2182.43 211.449 2199.66 245.669 2207.58 280.409L2206.03 280.534C2189.08 206.181 2132.27 140.242 2050.17 99.625C2011.77 80.6009 1966.09 66.935 1918.07 60.113C1859.28 51.7589 1804.66 53.5706 1760.13 65.3522C1743.66 69.6845 1728.85 75.1108 1714.84 81.9416C1675.45 101.157 1646.26 132.797 1630.41 173.441C1621.8 195.386 1618.04 217.655 1614.4 239.191L1614.36 239.411C1612.74 249.006 1612.23 260.942 1611.7 273.578C1610.04 312.478 1607.99 360.888 1573.68 392.382C1565.27 400.162 1555.02 406.616 1543.23 411.565C1530.51 416.901 1515.57 420.668 1498.81 422.765C1488.83 424.011 1478.54 424.637 1467.87 424.637Z" fill="#FFE492"/>
<path d="M86.3271 430.027C64.7588 430.027 41.2717 427.515 14.7643 422.386C-11.5735 417.29 -37.6205 410.255 -61.848 403.413C-66.2346 402.167 -70.588 400.923 -74.9119 399.688C-96.436 393.54 -116.767 387.733 -135.768 383.209C-211.533 365.178 -283.751 348.971 -353.594 333.302L-365.167 330.704L-364.585 329.778L-353.012 332.375C-283.166 348.049 -210.936 364.255 -135.157 382.291C-116.104 386.826 -95.7473 392.639 -74.1974 398.797C-69.8771 400.032 -65.5237 401.275 -61.1408 402.519C-11.4078 416.564 41.43 430.175 92.6767 428.962C155.673 427.394 193.424 398.064 219.273 372.689C225.895 366.199 232.274 359.731 237.091 354.822C239.751 352.117 242.391 349.414 245.025 346.717C266.866 324.362 287.495 303.247 314.624 283.338C350.435 257.063 396.316 230.351 443.82 208.129C487.892 187.511 532.366 171.221 576.011 159.712C626.072 146.511 674.968 139.66 721.342 139.35C791.123 138.729 855.934 153.078 913.951 181.992C946.111 198.04 974.946 215.4 998.916 230.266C1011.96 238.356 1025 246.648 1037.61 254.668C1082.26 283.058 1128.44 312.413 1180.22 336.19C1203.35 346.814 1227.63 357.107 1252.37 366.782C1283 378.729 1314.1 389.696 1344.82 399.378C1392.83 414.51 1452.58 433.342 1512.61 426.659C1545.65 422.981 1569.97 413.119 1586.96 396.509C1620.57 363.817 1618.3 312.909 1616.48 272.003C1615.94 259.907 1615.43 248.48 1616.04 239.28C1617.42 218.541 1619.5 194.439 1626.71 170.831C1632.79 150.828 1641.96 132.73 1653.97 117.044C1667.56 99.2986 1684.98 84.4218 1705.73 72.8251C1719.48 65.1402 1734.89 58.6176 1751.52 53.4356C1775.26 46.0171 1801.9 41.3524 1830.71 39.5737C1857.68 37.9073 1886.12 38.7835 1915.24 42.1757C1939.8 45.0375 1964 49.744 1987.17 56.1675C2010.5 62.6307 2032.24 70.6832 2051.8 80.1006C2074.35 90.9444 2095.08 103.75 2113.42 118.162C2130.79 131.817 2146.19 147.046 2159.19 163.424C2183.51 194.064 2199.51 228.991 2205.46 264.422L2203.81 264.521C2191.02 188.436 2135.24 121.499 2050.76 80.8733C2012.07 62.2454 1963.83 48.848 1914.92 43.1487C1854.45 36.1022 1798.21 39.9634 1752.29 54.314C1735.78 59.4541 1720.5 65.9261 1706.86 73.5494C1667.76 95.4 1641.34 128.189 1628.34 171.01C1621.15 194.553 1619.07 218.614 1617.7 239.32C1617.08 248.486 1617.59 259.896 1618.13 271.977C1619.03 292.157 1620.05 315.031 1616.64 337.143C1612.67 362.802 1603.42 382.39 1588.38 397.027C1580.18 405.035 1570.01 411.628 1558.14 416.621C1545.33 422.014 1530.11 425.719 1512.92 427.632C1504.24 428.598 1495.58 429.037 1486.96 429.037C1435.37 429.037 1385.38 413.279 1344.05 400.252C1313.28 390.555 1282.14 379.572 1251.47 367.608C1226.69 357.92 1202.37 347.611 1179.21 336.972C1127.32 313.146 1081.1 283.761 1036.41 255.343C1023.8 247.326 1010.76 239.036 997.726 230.95C973.79 216.102 944.995 198.767 912.894 182.75C855.19 153.989 790.758 139.724 721.368 140.336C612.396 141.067 510.846 178.025 444.844 208.904C397.435 231.082 351.647 257.736 315.913 283.959C288.865 303.808 268.265 324.891 246.457 347.21C243.824 349.907 241.18 352.61 238.52 355.318C233.699 360.229 227.316 366.701 220.69 373.197C209.84 383.849 192.806 399.356 170.243 410.979C159.286 416.623 147.625 421.059 135.585 424.165C122.16 427.628 107.744 429.574 92.7467 429.946C90.6216 430.001 88.4817 430.027 86.3271 430.027Z" fill="#FFE492"/>
<path d="M93.252 460.675C71.658 460.675 48.2187 457.969 21.8513 452.449C-5.44786 446.734 -32.4377 438.699 -55.2361 431.591C-62.2414 429.403 -69.2319 427.184 -75.9941 425.037C-94.8958 419.039 -112.751 413.37 -129.587 408.743C-190.045 392.123 -250.109 375.897 -308.199 360.203C-327.414 355.012 -347.281 349.646 -366.536 344.433L-365.814 343.48C-346.559 348.692 -326.692 354.059 -307.477 359.25C-249.387 374.943 -189.316 391.172 -128.854 407.794C-111.974 412.435 -94.0966 418.107 -75.1728 424.115C-68.4143 426.261 -61.4237 428.478 -54.4258 430.666C-7.1421 445.402 47.703 461.001 100.22 459.532C164.701 457.688 200.917 425.66 225.269 397.965C231.512 390.87 237.549 383.747 242.108 378.334C244.451 375.555 246.779 372.779 249.103 370.01C269.993 345.102 289.724 321.576 316.397 298.984C351.088 269.6 396.931 239.188 445.475 213.351C513.078 177.524 617.564 133.823 731.424 129.084C803.834 125.988 870.479 139.271 929.501 168.567C956.02 181.735 982.243 196.925 1014.54 217.822C1030.86 228.382 1047.05 239.327 1062.71 249.909C1103.46 277.441 1145.59 305.911 1193.06 329.675C1216.05 341.19 1240.17 352.388 1264.73 362.959C1294.46 375.747 1325.55 387.912 1357.12 399.116C1405.62 416.223 1465.98 437.517 1526.73 431.489C1560.04 428.253 1585.21 418.05 1601.55 401.166C1634.69 366.994 1627.58 311.089 1622.39 270.269C1620.93 258.813 1619.55 247.994 1619.28 239.265C1618.68 219.867 1618.73 194.29 1624.54 168.457C1634.56 123.692 1659.15 88.6998 1697.61 64.4563C1711.09 55.9151 1726.55 48.4944 1743.56 42.3988C1767.75 33.7167 1795.04 27.8765 1824.69 25.0434C1852.62 22.3753 1882.01 22.4172 1912.05 25.1689C1937.4 27.5419 1962.33 31.8434 1986.14 37.9499C2010.19 44.1181 2032.49 51.9769 2052.43 61.3084C2075.48 72.0906 2096.55 84.9399 2115.02 99.5018C2132.54 113.302 2147.88 128.747 2160.63 145.411C2184.57 176.697 2199.34 212.328 2203.34 248.452L2201.59 248.52C2192.99 170.698 2138.23 102.762 2051.36 62.1339C2011.97 43.702 1962.4 30.9408 1911.79 26.2035C1849.39 20.491 1791.53 26.4016 1744.46 43.297C1727.59 49.3419 1712.26 56.7032 1698.89 65.1762C1660.68 89.2589 1636.25 124.053 1626.27 168.598C1620.48 194.36 1620.43 219.887 1621.03 239.248C1621.31 247.945 1622.68 258.752 1624.14 270.192C1626.82 291.292 1629.86 315.21 1628.12 338.56C1626.09 365.748 1617.9 386.399 1603.06 401.692C1595.08 409.941 1584.99 416.677 1573.06 421.713C1560.13 427.175 1544.64 430.811 1527.02 432.524C1499.69 435.234 1470.28 432.799 1437.1 425.079C1408.25 418.367 1380.62 408.62 1356.24 400.021C1324.62 388.801 1293.49 376.619 1263.71 363.813C1239.11 353.227 1214.97 342.013 1191.94 330.483C1144.37 306.671 1102.19 278.17 1061.4 250.609C1045.75 240.029 1029.56 229.091 1013.26 218.54C981.017 197.68 954.841 182.519 928.385 169.381C869.713 140.253 803.491 127.049 731.542 130.125C618.172 134.847 514.032 178.414 446.631 214.133C398.184 239.917 352.436 270.265 317.818 299.587C291.219 322.115 271.518 345.608 250.661 370.479C248.337 373.251 246.009 376.026 243.666 378.805C239.103 384.222 233.063 391.352 226.812 398.454C202.246 426.396 165.666 458.709 100.298 460.578C97.9738 460.642 95.6203 460.675 93.252 460.675Z" fill="#FFE492"/>
<path d="M100.316 491.324C41.3126 491.324 -20.5967 469.665 -75.4787 450.462C-92.3436 444.563 -108.273 438.989 -123.411 434.276L-367.906 358.16L-367.055 357.185L-122.56 433.301C-107.382 438.025 -91.4339 443.605 -74.5468 449.514C-17.5434 469.458 47.0693 492.064 107.763 490.104C173.665 487.98 208.382 453.256 231.265 423.245C238.749 413.429 245.975 403.442 252.966 393.782C272.085 367.366 291.852 340.049 318.161 314.626C339.051 294.44 365.002 273.269 393.208 253.406C424.149 231.615 457.279 211.623 491.668 193.985C529.586 174.541 568.14 158.456 606.257 146.179C648.417 132.601 689.952 123.736 729.715 119.829C809.369 112.003 881.816 123.879 945.036 155.132C997.576 181.101 1042.23 213.214 1085.41 244.271C1123 271.303 1161.87 299.254 1205.88 323.147C1256.72 350.744 1311.74 376.211 1369.43 398.839C1418.02 417.904 1478.51 441.635 1540.85 436.301C1593.49 431.797 1623.93 410.744 1633.9 371.934C1642.38 338.922 1634.31 299.763 1627.83 268.299C1625.62 257.576 1623.54 247.447 1622.51 239.234C1616.86 193.957 1620.47 156.58 1633.52 124.971C1641.67 105.249 1653.69 87.6691 1669.25 72.7198C1686.63 56.0203 1708.95 42.099 1735.58 31.3432C1758.62 22.0381 1784.58 15.28 1812.75 11.2559C1839.57 7.42554 1867.8 6.14216 1896.67 7.44096C1953.45 9.99452 2008.98 22.4454 2053.05 42.4974C2076.6 53.2158 2097.99 66.1113 2116.61 80.8229C2134.26 94.7663 2149.56 110.429 2162.06 127.379C2185.62 159.31 2199.16 195.647 2201.19 232.461L2199.35 232.498C2195.01 154.104 2139.9 83.4029 2051.93 43.3758C1958.51 0.867724 1825.9 -3.81014 1736.6 32.2568C1648.15 67.9847 1611.43 135.661 1624.34 239.153C1625.36 247.34 1627.45 257.455 1629.66 268.164C1636.15 299.696 1644.23 338.94 1635.71 372.101C1631.07 390.163 1621.75 404.679 1608 415.247C1600.26 421.189 1590.94 426.045 1580.29 429.677C1568.95 433.543 1555.77 436.138 1541.1 437.393C1535.11 437.906 1529.01 438.164 1522.82 438.164C1500.23 438.164 1476.17 434.749 1449.8 427.833C1420.1 420.04 1391.44 408.795 1368.41 399.761C1310.65 377.1 1255.55 351.6 1204.64 323.964C1160.53 300.02 1121.62 272.037 1083.99 244.975C1040.86 213.958 996.261 181.885 943.854 155.981C881.057 124.942 809.108 113.143 730.002 120.916C569.986 136.638 405.152 232.652 319.715 315.207C293.476 340.56 273.735 367.839 254.642 394.22C247.648 403.884 240.418 413.878 232.926 423.703C217.733 443.627 202.728 457.894 185.705 468.597C175.079 475.276 163.551 480.542 151.441 484.247C137.976 488.365 123.31 490.708 107.848 491.207C105.351 491.284 102.835 491.324 100.316 491.324Z" fill="#FFE492"/>
</g>
<defs>
<filter id="filter0_d_9_103" x="-371.906" y="0.27124" width="2673.61" height="555.002" filterUnits="userSpaceOnUse" color-interpolation-filters="sRGB">
<feFlood flood-opacity="0" result="BackgroundImageFix"/>
<feColorMatrix in="SourceAlpha" type="matrix" values="0 0 0 0 0 0 0 0 0 0 0 0 0 0 0 0 0 0 127 0" result="hardAlpha"/>
<feOffset dy="4"/>
<feGaussianBlur stdDeviation="2"/>
<feComposite in2="hardAlpha" operator="out"/>
<feColorMatrix type="matrix" values="0 0 0 0 0 0 0 0 0 0 0 0 0 0 0 0 0 0 0.25 0"/>
<feBlend mode="normal" in2="BackgroundImageFix" result="effect1_dropShadow_9_103"/>
<feBlend mode="normal" in="SourceGraphic" in2="effect1_dropShadow_9_103" result="shape"/>
</filter>
</defs>
</svg>
